<svg width="226" height="225" viewBox="0 0 226 225" fill="none" xmlns="http://www.w3.org/2000/svg">
<circle cx="113.057" cy="112.5" r="112.5" fill="#FFE9DA"/>
<path d="M110.127 98.6875C152.176 88.776 193.138 92.1318 225.328 105.566C225.936 115.774 225.153 126.236 222.825 136.715C209.351 197.368 149.258 235.615 88.6052 222.141C51.9593 214 23.4951 188.84 9.67334 156.822C32.4607 130.181 67.7983 108.665 110.127 98.6875Z" fill="#FFDFC9"/>
<rect width="2.83661" height="19.967" transform="matrix(0.902016 0.431703 -0.431198 0.902257 120.686 133.974)" fill="#E54A3F"/>
<path d="M54.8767 74.4798C54.8767 74.4798 61.551 73.4369 65.931 74.0628C70.3109 74.6887 79.8875 79.282 88.4565 83.4552C93.8794 86.0962 108.479 94.9344 121.202 103.284C139.206 115.099 147.69 121.651 164.793 135.009C171.747 140.44 181.921 149.586 180.645 151.289C179.393 152.958 174.945 154.655 170.633 155.881C165.441 157.357 161.456 158.727 157.076 157.342C149.15 154.837 136.909 145.785 124.539 137.513C112.036 129.153 93.4622 114.763 93.4622 114.763C93.4622 114.763 79.1515 104.693 66.9738 94.9344C52.6488 83.4552 47.9418 80.7415 48.6196 78.0281C49.2975 75.3147 54.8767 74.4798 54.8767 74.4798Z" fill="#FA8C7D"/>
<ellipse cx="6.25844" cy="8.13835" rx="6.25844" ry="8.13835" transform="matrix(0.838369 0.545103 -0.544552 0.838727 87.1519 133.139)" fill="#FE5649"/>
<ellipse cx="2.25244" cy="3.64318" rx="2.25244" ry="3.64318" transform="matrix(0.870826 0.491592 -0.491055 0.871128 88.5405 138.983)" fill="#FA8C7D"/>
<path d="M51.7376 109.654C44.8549 114.872 44.2881 121.894 46.1062 129.691C49.0263 142.215 55.492 145.971 58.829 145.971C66.3376 145.971 74.0963 146.097 87.6117 144.093C101.127 142.089 117.203 137.627 134.957 130.109C150.6 123.485 158.87 117.93 173.126 109.237C186.474 101.097 184.388 96.0875 183.763 95.0439C182.511 92.9567 178.34 91.0412 170.414 90.8695C141.631 90.2459 117.229 90.452 96.9973 92.5392C76.766 94.6264 61.9278 101.929 51.7376 109.654Z" fill="#FBCDC5"/>
<path d="M164.682 147.541L168.227 137.731L165.099 135.226C163.986 138.009 161.678 143.826 161.344 144.828C160.927 146.08 161.344 147.123 162.387 147.541C163.222 147.875 164.264 147.68 164.682 147.541Z" fill="#E54A3F"/>
<path d="M112.22 117.316L125.36 113.767L126.194 108.549L115.974 98.5309C112.289 97.5568 104.253 95.6923 101.583 96.0262C98.9131 96.3602 93.4485 98.1134 91.9886 98.7396C88.8729 100.076 86.5657 102.079 86.9829 105.836C87.4 109.593 96.16 113.767 101.583 116.272C105.921 118.276 110.482 117.803 112.22 117.316Z" fill="#FE5649"/>
<path d="M112.339 117.376L125.479 113.827L126.314 108.609L116.094 98.5908C112.409 97.6167 107.243 98.2569 104.573 98.5908C101.904 98.9248 95.3963 101.265 93.9364 101.891C90.8207 103.227 88.9306 106.144 89.5564 108.609C90.1821 111.075 96.599 114.583 101.862 116.71C106.293 118.5 110.601 117.863 112.339 117.376Z" fill="#E54A3F"/>
<path d="M66.9739 58.617C66.9739 58.617 73.6481 57.5742 78.0281 58.2C82.4081 58.8259 91.9847 63.4193 100.554 67.5924C105.977 70.2334 120.576 79.0716 133.299 87.4208C151.303 99.2359 159.788 105.788 176.89 119.146C183.844 124.577 194.018 133.723 192.742 135.426C191.49 137.095 187.042 138.792 182.73 140.018C177.538 141.494 173.553 142.864 169.173 141.479C161.248 138.974 149.006 129.922 136.636 121.651C124.134 113.29 105.559 98.9001 105.559 98.9001C105.559 98.9001 91.2487 88.8301 79.071 79.0716C64.746 67.5924 60.0389 64.8787 60.7168 62.1653C61.3946 59.4519 66.9739 58.617 66.9739 58.617Z" fill="#BD3830"/>
<ellipse cx="11.4146" cy="18.4762" rx="11.4146" ry="18.4762" transform="matrix(0.982741 -0.184989 0.184732 0.982789 41.3672 112.521)" fill="#E54A3F"/>
<path d="M52.728 133.139L53.9794 129.8C61.627 134.183 78.0902 143.701 82.7621 146.706C88.6021 150.463 88.3935 151.924 88.185 154.011C87.9764 156.099 87.455 157.977 85.8907 160.064C84.0135 162.569 80.2593 161.108 79.6336 160.69C79.133 160.356 66.4937 148.167 66.4937 148.167L52.728 133.139Z" fill="#FA8C7D"/>
<path d="M42.7169 126.251L47.0969 123.329L31.2455 107.675L31.1939 107.63C29.5143 106.159 26.4867 103.507 24.7798 104.127C23.7369 104.505 21.97 108.008 21.6513 109.762C21.2342 112.058 22.277 112.893 23.3199 113.937L42.7169 126.251Z" fill="#FA8C7D"/>
<path d="M59.4028 132.508C61.0024 131.548 61.2605 129.169 61.2799 127.708C61.2994 126.247 60.3622 124.66 59.1942 122.49C58.0262 120.319 55.3705 120.472 54.1886 120.82C51.4076 121.933 45.4286 124.368 43.76 125.203C41.6743 126.247 40.2144 127.708 40.2144 130.421C40.2144 133.134 42.9258 136.056 45.8457 135.848C48.7657 135.639 57.3171 133.761 59.4028 132.508Z" fill="#FBCDC5"/>
<path d="M67.1195 82.2115L70.6652 72.4016L67.5367 69.897C66.4243 72.6799 64.1161 78.4962 63.7824 79.4981C63.3653 80.7504 63.7824 81.794 64.8253 82.2115C65.6595 82.5454 66.7024 82.3506 67.1195 82.2115Z" fill="#E54A3F"/>
<path d="M175.273 71.3743L152.956 99.9689L180.487 94.1247C183.129 87.9327 188.079 74.2964 189.247 70.9569C190.415 67.6173 187.787 68.0348 187.37 68.0348H180.487C177.651 68.0348 176.107 70.3307 175.273 71.3743Z" fill="#BD3830"/>
<path d="M180.071 101.847L164.011 106.231C170.129 108.318 183.491 112.91 187.996 114.579C192.501 116.249 195.991 116.527 197.173 116.458C198.147 116.319 200.594 115.665 202.596 114.997C204.598 114.329 203.013 113.118 201.971 112.492L191.125 107.065L180.071 101.847Z" fill="#BD3830"/>
<ellipse cx="6.25844" cy="8.13835" rx="6.25844" ry="8.13835" transform="matrix(0.838369 0.545103 -0.544552 0.838727 109.677 147.525)" fill="#FE5649"/>
<ellipse cx="2.25244" cy="3.64318" rx="2.25244" ry="3.64318" transform="matrix(0.870826 0.491592 -0.491055 0.871128 111.483 152.535)" fill="#FA8C7D"/>
</svg>
