<svg width="225" height="225" viewBox="0 0 225 225" fill="none" xmlns="http://www.w3.org/2000/svg">
<circle cx="112.5" cy="112.5" r="112.5" fill="#FFDFB2"/>
<path d="M109.127 98.6875C151.176 88.776 192.138 92.1318 224.328 105.566C224.936 115.774 224.153 126.236 221.825 136.715C208.351 197.368 148.258 235.615 87.6052 222.141C50.9593 214 22.4951 188.84 8.67334 156.822C31.4607 130.181 66.7983 108.665 109.127 98.6875Z" fill="#FFD59B"/>
<rect width="2.84714" height="20.0758" transform="matrix(0.901552 0.43267 -0.430232 0.902718 121.578 133.599)" fill="#F78900"/>
<path d="M55.5576 73.7502C55.5576 73.7502 62.2532 72.7011 66.6472 73.3307C71.0411 73.9603 80.6484 78.5811 89.2448 82.7791C94.6849 85.4358 109.332 94.3268 122.095 102.726C140.157 114.611 148.668 121.202 165.826 134.64C172.802 140.104 183.008 149.304 181.728 151.017C180.472 152.696 176.01 154.403 171.684 155.636C166.475 157.122 162.478 158.499 158.084 157.107C150.133 154.587 137.852 145.48 125.443 137.16C112.9 128.749 94.2664 114.273 94.2664 114.273C94.2664 114.273 79.91 104.143 67.6934 94.3268C53.3225 82.7791 48.6005 80.0492 49.2805 77.3196C49.9605 74.5901 55.5576 73.7502 55.5576 73.7502Z" fill="#F9DD7A"/>
<ellipse cx="6.2836" cy="8.18021" rx="6.2836" ry="8.18021" transform="matrix(0.837682 0.546158 -0.543498 0.839411 87.936 132.759)" fill="#F5AD00"/>
<ellipse cx="2.26115" cy="3.66247" rx="2.26115" ry="3.66247" transform="matrix(0.870246 0.492618 -0.49003 0.871706 89.3291 138.639)" fill="#F5C305"/>
<path d="M52.4088 109.135C45.5041 114.384 44.9355 121.447 46.7595 129.291C49.6889 141.889 56.1752 145.669 59.5229 145.669C67.0555 145.669 74.8391 145.795 88.3976 143.779C101.956 141.763 118.084 137.275 135.895 129.712C151.588 123.048 159.884 117.46 174.185 108.715C187.576 100.526 185.484 95.4873 184.856 94.4374C183.601 92.3378 179.416 90.4109 171.465 90.2382C142.59 89.6109 118.109 89.8182 97.8133 91.9178C77.5173 94.0175 62.6316 101.363 52.4088 109.135Z" fill="#FDF7DF"/>
<path d="M165.713 147.247L169.27 137.379L166.132 134.859C165.016 137.659 162.7 143.51 162.365 144.517C161.947 145.777 162.365 146.827 163.412 147.247C164.249 147.583 165.295 147.387 165.713 147.247Z" fill="#F5AD00"/>
<path d="M113.084 116.842L126.266 113.273L127.103 108.024L116.85 97.9452C113.154 96.9654 105.091 95.0897 102.413 95.4256C99.7346 95.7616 94.2525 97.5253 92.7879 98.1552C89.6623 99.4995 87.3478 101.515 87.7662 105.294C88.1847 109.073 96.9727 113.273 102.413 115.792C106.765 117.808 111.34 117.332 113.084 116.842Z" fill="#F5C305"/>
<path d="M113.203 116.902L126.385 113.333L127.222 108.083L116.969 98.0051C113.273 97.0253 108.091 97.6692 105.412 98.0052C102.734 98.3411 96.2059 100.695 94.7413 101.325C91.6156 102.669 89.7195 105.604 90.3473 108.083C90.975 110.563 97.4124 114.093 102.692 116.232C107.137 118.033 111.459 117.392 113.203 116.902Z" fill="#F5AD00"/>
<path d="M67.6938 57.7928C67.6938 57.7928 74.3894 56.7437 78.7834 57.3733C83.1774 58.0029 92.7846 62.6237 101.381 66.8217C106.821 69.4784 121.468 78.3694 134.231 86.7684C152.293 98.6539 160.804 105.245 177.962 118.683C184.938 124.146 195.145 133.347 193.864 135.06C192.608 136.739 188.146 138.446 183.82 139.679C178.611 141.164 174.614 142.542 170.22 141.149C162.269 138.629 149.988 129.523 137.579 121.202C125.036 112.792 106.403 98.3161 106.403 98.3161C106.403 98.3161 92.0462 88.1861 79.8296 78.3694C65.4588 66.8217 60.7367 64.0918 61.4167 61.3623C62.0967 58.6327 67.6938 57.7928 67.6938 57.7928Z" fill="#F78900"/>
<ellipse cx="11.4522" cy="18.5847" rx="11.4522" ry="18.5847" transform="matrix(0.982648 -0.185481 0.184242 0.982881 42.0049 112.018)" fill="#F5AD00"/>
<path d="M53.4019 132.759L54.6573 129.4C62.3293 133.809 78.8451 143.384 83.532 146.407C89.3327 150.149 89.1849 151.627 88.9784 153.694L88.9722 153.756C88.7629 155.856 88.2398 157.745 86.6706 159.845C84.7874 162.364 81.0212 160.895 80.3934 160.475C79.8913 160.139 67.2115 147.877 67.2115 147.877L53.4019 132.759Z" fill="#F9DD7A"/>
<path d="M43.3588 125.83L47.7528 122.891L31.8507 107.143L31.799 107.098C30.1139 105.618 27.0767 102.951 25.3644 103.574C24.3181 103.955 22.5455 107.478 22.2258 109.243C21.8074 111.553 22.8536 112.393 23.8997 113.442L43.3588 125.83Z" fill="#F9DD7A"/>
<path d="M60.0975 132.125C61.7022 131.158 61.9611 128.765 61.9806 127.295C62.0001 125.826 61.06 124.23 59.8882 122.046C58.7165 119.863 56.0522 120.017 54.8665 120.366C52.0767 121.486 46.0786 123.936 44.4047 124.776C42.3123 125.826 40.8477 127.295 40.8477 130.025C40.8477 132.754 43.5677 135.694 46.4971 135.484C49.4264 135.274 58.0051 133.384 60.0975 132.125Z" fill="#FDF7DF"/>
<path d="M67.8397 81.5279L71.3967 71.6596L68.2582 69.14C67.1422 71.9395 64.8267 77.7906 64.4919 78.7984C64.0734 80.0582 64.4919 81.108 65.5381 81.5279C66.375 81.8639 67.4212 81.6679 67.8397 81.5279Z" fill="#F5AD00"/>
<path d="M176.34 70.6261L153.951 99.3912L181.57 93.5122C184.221 87.2833 189.187 73.5656 190.358 70.2062C191.53 66.8468 188.894 67.2667 188.475 67.2667H181.57C178.725 67.2667 177.176 69.5763 176.34 70.6261Z" fill="#F78900"/>
<path d="M181.151 101.282L165.04 105.691C171.178 107.791 184.583 112.41 189.102 114.089C193.622 115.769 197.123 116.049 198.309 115.979C199.285 115.839 201.74 115.181 203.749 114.509C205.758 113.838 204.167 112.62 203.121 111.99L192.241 106.531L181.151 101.282Z" fill="#F78900"/>
<ellipse cx="6.2836" cy="8.18021" rx="6.2836" ry="8.18021" transform="matrix(0.837682 0.546158 -0.543498 0.839411 110.534 147.231)" fill="#F5AD00"/>
<ellipse cx="2.26115" cy="3.66247" rx="2.26115" ry="3.66247" transform="matrix(0.870246 0.492618 -0.49003 0.871706 112.345 152.27)" fill="#F5C305"/>
</svg>
