<svg width="226" height="225" viewBox="0 0 226 225" fill="none" xmlns="http://www.w3.org/2000/svg">
<circle cx="113.386" cy="112.5" r="112.5" fill="#D3F6F5"/>
<path d="M110.127 98.6875C152.176 88.776 193.138 92.1318 225.328 105.566C225.936 115.774 225.153 126.236 222.825 136.715C209.351 197.368 149.258 235.615 88.6052 222.141C51.9593 214 23.4951 188.84 9.67334 156.822C32.4607 130.181 67.7983 108.665 110.127 98.6875Z" fill="#ACE8F0"/>
<rect width="2.84714" height="20.0758" transform="matrix(0.901552 0.43267 -0.430232 0.902718 122.463 133.599)" fill="#005790"/>
<path d="M56.4428 73.7502C56.4428 73.7502 63.1384 72.7011 67.5324 73.3307C71.9264 73.9603 81.5336 78.5811 90.13 82.7791C95.5702 85.4358 110.217 94.3268 122.98 102.726C141.042 114.611 149.553 121.202 166.711 134.64C173.687 140.104 183.894 149.304 182.613 151.017C181.357 152.696 176.895 154.403 172.569 155.636C167.36 157.122 163.363 158.499 158.969 157.107C151.018 154.587 138.737 145.48 126.328 137.16C113.785 128.749 95.1517 114.273 95.1517 114.273C95.1517 114.273 80.7952 104.143 68.5786 94.3268C54.2078 82.7791 49.4857 80.0492 50.1657 77.3196C50.8457 74.5901 56.4428 73.7502 56.4428 73.7502Z" fill="#51C2EC"/>
<ellipse cx="6.2836" cy="8.18021" rx="6.2836" ry="8.18021" transform="matrix(0.837682 0.546158 -0.543498 0.839411 88.8213 132.759)" fill="#0087C5"/>
<ellipse cx="2.26115" cy="3.66247" rx="2.26115" ry="3.66247" transform="matrix(0.870246 0.492618 -0.49003 0.871706 90.2153 138.638)" fill="#07A8E7"/>
<path d="M53.2931 109.135C46.3884 114.384 45.8197 121.447 47.6437 129.291C50.5731 141.889 57.0595 145.668 60.4072 145.668C67.9398 145.668 75.7233 145.794 89.2819 143.779C102.84 141.763 118.968 137.274 136.779 129.711C152.472 123.047 160.768 117.46 175.069 108.715C188.46 100.526 186.368 95.4869 185.74 94.4371C184.485 92.3374 180.3 90.4106 172.349 90.2378C143.474 89.6105 118.994 89.8178 98.6976 91.9174C78.4016 94.0171 63.5159 101.363 53.2931 109.135Z" fill="#B3E4F7"/>
<path d="M166.598 147.247L170.156 137.379L167.017 134.859C165.901 137.659 163.585 143.51 163.251 144.517C162.832 145.777 163.251 146.827 164.297 147.247C165.134 147.583 166.18 147.387 166.598 147.247Z" fill="#0087C5"/>
<path d="M113.969 116.842L127.151 113.272L127.988 108.023L117.735 97.9447C114.039 96.9649 105.976 95.0892 103.298 95.4251C100.62 95.7611 95.1378 97.5248 93.6732 98.1547C90.5475 99.499 88.233 101.514 88.6515 105.293C89.07 109.073 97.8579 113.272 103.298 115.792C107.65 117.807 112.226 117.331 113.969 116.842Z" fill="#07A8E7"/>
<path d="M114.088 116.901L127.27 113.332L128.107 108.083L117.855 98.0046C114.158 97.0248 108.976 97.6687 106.298 98.0047C103.619 98.3406 97.0912 100.694 95.6265 101.324C92.5009 102.669 90.6048 105.603 91.2325 108.083C91.8603 110.563 98.2977 114.093 103.578 116.232C108.022 118.033 112.345 117.391 114.088 116.901Z" fill="#0087C5"/>
<path d="M68.5791 57.7928C68.5791 57.7928 75.2747 56.7437 79.6686 57.3733C84.0626 58.0029 93.6698 62.6237 102.266 66.8217C107.706 69.4784 122.353 78.3694 135.116 86.7684C153.178 98.6539 161.69 105.245 178.847 118.683C185.823 124.146 196.03 133.347 194.749 135.06C193.494 136.739 189.032 138.446 184.706 139.679C179.497 141.164 175.499 142.542 171.105 141.149C163.154 138.629 150.874 129.523 138.464 121.202C125.922 112.792 107.288 98.3161 107.288 98.3161C107.288 98.3161 92.9315 88.1861 80.7148 78.3694C66.344 66.8217 61.6219 64.0918 62.3019 61.3623C62.982 58.6327 68.5791 57.7928 68.5791 57.7928Z" fill="#005790"/>
<ellipse cx="11.4522" cy="18.5847" rx="11.4522" ry="18.5847" transform="matrix(0.982648 -0.185481 0.184242 0.982881 42.8901 112.018)" fill="#0087C5"/>
<path d="M54.2881 132.759L55.5435 129.4C63.2155 133.809 79.7313 143.384 84.4182 146.407C90.2189 150.149 90.0712 151.627 89.8646 153.694L89.8584 153.756C89.6492 155.856 89.1261 157.745 87.5568 159.845C85.6736 162.364 81.9074 160.895 81.2797 160.475C80.7775 160.139 68.0977 147.877 68.0977 147.877L54.2881 132.759Z" fill="#51C2EC"/>
<path d="M44.244 125.83L48.638 122.891L32.736 107.143L32.6842 107.098C30.9992 105.618 27.9619 102.951 26.2496 103.574C25.2034 103.955 23.4308 107.478 23.1111 109.243C22.6926 111.553 23.7388 112.393 24.785 113.442L44.244 125.83Z" fill="#51C2EC"/>
<path d="M60.9827 132.125C62.5875 131.158 62.8464 128.765 62.8659 127.295C62.8854 125.826 61.9452 124.23 60.7735 122.046C59.6018 119.863 56.9375 120.017 55.7518 120.366C52.962 121.486 46.9638 123.936 45.2899 124.776C43.1976 125.826 41.7329 127.295 41.7329 130.025C41.7329 132.754 44.453 135.694 47.3823 135.484C50.3116 135.274 58.8904 133.384 60.9827 132.125Z" fill="#B3E4F7"/>
<path d="M68.725 81.5279L72.282 71.6596L69.1434 69.14C68.0275 71.9395 65.7119 77.7906 65.3772 78.7984C64.9587 80.0582 65.3772 81.108 66.4233 81.5279C67.2603 81.8639 68.3065 81.6679 68.725 81.5279Z" fill="#0087C5"/>
<path d="M177.225 70.6261L154.836 99.3912L182.456 93.5122C185.106 87.2833 190.072 73.5656 191.244 70.2062C192.415 66.8468 189.779 67.2667 189.361 67.2667H182.456C179.61 67.2667 178.062 69.5763 177.225 70.6261Z" fill="#005790"/>
<path d="M182.037 101.281L165.925 105.69C172.063 107.79 185.468 112.409 189.988 114.089C194.507 115.768 198.008 116.048 199.194 115.978C200.17 115.838 202.625 115.181 204.634 114.509C206.643 113.837 205.053 112.619 204.006 111.989L193.126 106.53L182.037 101.281Z" fill="#005790"/>
<ellipse cx="6.2836" cy="8.18021" rx="6.2836" ry="8.18021" transform="matrix(0.837682 0.546158 -0.543498 0.839411 111.419 147.231)" fill="#0087C5"/>
<ellipse cx="2.26115" cy="3.66247" rx="2.26115" ry="3.66247" transform="matrix(0.870246 0.492618 -0.49003 0.871706 113.23 152.27)" fill="#07A8E7"/>
</svg>
