<svg width="226" height="227" viewBox="0 0 226 227" fill="none" xmlns="http://www.w3.org/2000/svg">
<circle cx="113.058" cy="112.5" r="112.5" fill="#EFE9E2"/>
<path d="M110.127 100.187C152.176 90.276 193.138 93.6318 225.328 107.066C225.936 117.274 225.153 127.736 222.825 138.215C209.351 198.868 149.258 237.115 88.6052 223.641C51.9593 215.5 23.4951 190.34 9.67334 158.322C32.4607 131.681 67.7983 110.165 110.127 100.187Z" fill="#E2DDD8"/>
<rect width="2.84714" height="20.0758" transform="matrix(0.901552 0.43267 -0.430232 0.902718 122.134 133.599)" fill="#3C3C3C"/>
<path d="M56.1142 73.7502C56.1142 73.7502 62.8098 72.7011 67.2038 73.3307C71.5978 73.9603 81.205 78.5811 89.8014 82.7791C95.2416 85.4358 109.888 94.3268 122.652 102.726C140.713 114.611 149.225 121.202 166.382 134.64C173.358 140.104 183.565 149.304 182.284 151.017C181.029 152.696 176.567 154.403 172.241 155.636C167.032 157.122 163.034 158.499 158.64 157.107C150.689 154.587 138.409 145.48 125.999 137.16C113.457 128.749 94.8231 114.273 94.8231 114.273C94.8231 114.273 80.4666 104.143 68.25 94.3268C53.8792 82.7791 49.1571 80.0492 49.8371 77.3196C50.5171 74.5901 56.1142 73.7502 56.1142 73.7502Z" fill="#EAEAEA"/>
<ellipse cx="6.2836" cy="8.18021" rx="6.2836" ry="8.18021" transform="matrix(0.837682 0.546158 -0.543498 0.839411 88.4927 132.759)" fill="#6E6E6E"/>
<ellipse cx="2.26115" cy="3.66247" rx="2.26115" ry="3.66247" transform="matrix(0.870246 0.492618 -0.49003 0.871706 89.8867 138.638)" fill="#B7B7B7"/>
<path d="M52.9645 109.135C46.0598 114.384 45.4911 121.447 47.3151 129.291C50.2445 141.889 56.7309 145.668 60.0786 145.668C67.6112 145.668 75.3947 145.794 88.9533 143.779C102.512 141.763 118.639 137.274 136.45 129.711C152.143 123.047 160.44 117.46 174.741 108.715C188.132 100.526 186.039 95.4869 185.412 94.4371C184.156 92.3374 179.971 90.4106 172.02 90.2378C143.146 89.6105 118.665 89.8178 98.369 91.9174C78.073 94.0171 63.1873 101.363 52.9645 109.135Z" fill="#F9F9F9"/>
<path d="M166.27 147.247L169.827 137.379L166.689 134.859C165.573 137.659 163.257 143.51 162.923 144.517C162.504 145.777 162.923 146.827 163.969 147.247C164.806 147.583 165.852 147.387 166.27 147.247Z" fill="#6E6E6E"/>
<path d="M113.641 116.842L126.823 113.272L127.659 108.023L117.407 97.9447C113.71 96.9649 105.648 95.0892 102.969 95.4251C100.291 95.7611 94.8092 97.5248 93.3446 98.1547C90.2189 99.499 87.9044 101.514 88.3229 105.293C88.7414 109.073 97.5293 113.272 102.969 115.792C107.322 117.807 111.897 117.331 113.641 116.842Z" fill="#B7B7B7"/>
<path d="M113.76 116.901L126.942 113.332L127.779 108.083L117.526 98.0046C113.83 97.0248 108.648 97.6687 105.97 98.0047C103.291 98.3406 96.763 100.694 95.2984 101.324C92.1728 102.669 90.2766 105.603 90.9044 108.083C91.5321 110.563 97.9695 114.093 103.249 116.232C107.694 118.033 112.017 117.391 113.76 116.901Z" fill="#6E6E6E"/>
<path d="M68.2505 57.7928C68.2505 57.7928 74.946 56.7437 79.34 57.3733C83.734 58.0029 93.3412 62.6237 101.938 66.8217C107.378 69.4784 122.024 78.3694 134.788 86.7684C152.849 98.6539 161.361 105.245 178.518 118.683C185.494 124.146 195.701 133.347 194.42 135.06C193.165 136.739 188.703 138.446 184.377 139.679C179.168 141.164 175.171 142.542 170.777 141.149C162.826 138.629 150.545 129.523 138.136 121.202C125.593 112.792 106.959 98.3161 106.959 98.3161C106.959 98.3161 92.6028 88.1861 80.3862 78.3694C66.0154 66.8217 61.2933 64.0918 61.9733 61.3623C62.6533 58.6327 68.2505 57.7928 68.2505 57.7928Z" fill="#3C3C3C"/>
<ellipse cx="11.4522" cy="18.5847" rx="11.4522" ry="18.5847" transform="matrix(0.982648 -0.185481 0.184242 0.982881 42.562 112.018)" fill="#6E6E6E"/>
<path d="M53.9595 132.759L55.2149 129.4C62.8869 133.809 79.4027 143.384 84.0896 146.407C89.8903 150.149 89.7426 151.627 89.536 153.694L89.5298 153.756C89.3205 155.856 88.7974 157.745 87.2282 159.845C85.345 162.364 81.5788 160.895 80.9511 160.475C80.4489 160.139 67.7691 147.877 67.7691 147.877L53.9595 132.759Z" fill="#EAEAEA"/>
<path d="M43.9159 125.83L48.3099 122.891L32.4079 107.143L32.3561 107.098C30.6711 105.618 27.6338 102.951 25.9215 103.574C24.8752 103.955 23.1026 107.478 22.783 109.243C22.3645 111.553 23.4107 112.393 24.4569 113.442L43.9159 125.83Z" fill="#EAEAEA"/>
<path d="M60.6546 132.125C62.2593 131.158 62.5182 128.765 62.5377 127.295C62.5572 125.826 61.6171 124.23 60.4454 122.046C59.2736 119.863 56.6093 120.017 55.4237 120.366C52.6338 121.486 46.6357 123.936 44.9618 124.776C42.8694 125.826 41.4048 127.295 41.4048 130.025C41.4048 132.754 44.1249 135.694 47.0542 135.484C49.9835 135.274 58.5622 133.384 60.6546 132.125Z" fill="#F9F9F9"/>
<path d="M68.3963 81.5279L71.9534 71.6596L68.8148 69.14C67.6989 71.9395 65.3833 77.7906 65.0485 78.7984C64.6301 80.0582 65.0485 81.108 66.0947 81.5279C66.9317 81.8639 67.9779 81.6679 68.3963 81.5279Z" fill="#6E6E6E"/>
<path d="M176.896 70.6261L154.508 99.3912L182.127 93.5122C184.777 87.2833 189.743 73.5656 190.915 70.2062C192.087 66.8468 189.45 67.2667 189.032 67.2667H182.127C179.281 67.2667 177.733 69.5763 176.896 70.6261Z" fill="#3C3C3C"/>
<path d="M181.708 101.281L165.597 105.69C171.735 107.79 185.14 112.409 189.659 114.089C194.179 115.768 197.68 116.048 198.866 115.978C199.842 115.838 202.297 115.181 204.306 114.509C206.315 113.837 204.724 112.619 203.678 111.989L192.798 106.53L181.708 101.281Z" fill="#3C3C3C"/>
<ellipse cx="6.2836" cy="8.18021" rx="6.2836" ry="8.18021" transform="matrix(0.837682 0.546158 -0.543498 0.839411 111.09 147.231)" fill="#6E6E6E"/>
<ellipse cx="2.26115" cy="3.66247" rx="2.26115" ry="3.66247" transform="matrix(0.870246 0.492618 -0.49003 0.871706 112.902 152.27)" fill="#B7B7B7"/>
</svg>
