<svg width="20" height="20" viewBox="0 0 20 20" fill="none" xmlns="http://www.w3.org/2000/svg">
<path d="M13.5574 1.10526C15.0311 -0.368363 17.4197 -0.368402 18.8933 1.10526C20.3669 2.57892 20.3669 4.96753 18.8933 6.4412L15.3357 9.99882L18.8943 13.5574C20.3679 15.0311 20.3679 17.4207 18.8943 18.8943C17.4207 20.368 15.0311 20.368 13.5574 18.8943L9.9988 15.3357L6.44119 18.8943C4.96763 20.3675 2.57883 20.3675 1.10525 18.8943C-0.368416 17.4206 -0.368416 15.0311 1.10525 13.5574L4.66287 9.9998L1.10525 6.44218C-0.368371 4.96854 -0.368279 2.57896 1.10525 1.10526C2.57891 -0.368422 4.9685 -0.368422 6.44216 1.10526L9.99978 4.66288L13.5574 1.10526Z" fill="#FFF9E6"/>
</svg>
