<svg width="80" height="102" viewBox="0 0 80 102" fill="none" xmlns="http://www.w3.org/2000/svg">
<ellipse cx="39.8772" cy="17.127" rx="11.7688" ry="11.7722" fill="#58A3AA"/>
<ellipse cx="64.9331" cy="27.5909" rx="9.87059" ry="9.90364" fill="#58A3AA"/>
<ellipse cx="14.8208" cy="27.5909" rx="9.87059" ry="9.90364" fill="#58A3AA"/>
<path d="M22.0342 48.9844C22.0342 39.1299 30.0228 31.1414 39.8772 31.1414V31.1414C49.7316 31.1414 57.7202 39.1299 57.7202 48.9844V58.9463C57.7202 62.7853 54.608 65.8975 50.7689 65.8975H28.9854C25.1463 65.8975 22.0342 62.7853 22.0342 58.9463V48.9844Z" fill="#58A3AA"/>
<path d="M65.4111 39.7371C73.04 39.7373 79.2244 45.9216 79.2246 53.5505V61.2634C79.2246 64.2356 76.8149 66.6453 73.8428 66.6453H56.9785C56.7324 66.6453 56.4903 66.6265 56.2529 66.5945C58.9235 65.2993 60.7654 62.5626 60.7656 59.3953V47.9333C60.7656 45.5105 60.3439 43.1861 59.5732 41.0281C61.3465 40.2 63.3249 39.7371 65.4111 39.7371Z" fill="#58A3AA"/>
<path d="M14.5879 39.7371C6.95896 39.7372 0.774666 45.9216 0.774414 53.5505V61.2634C0.774414 64.2356 3.18407 66.6453 6.15625 66.6453H23.0205C23.2667 66.6453 23.5087 66.6265 23.7461 66.5945C21.0755 65.2993 19.2336 62.5626 19.2334 59.3953V47.9333C19.2334 45.5105 19.6551 43.1861 20.4258 41.0281C18.6525 40.2 16.6742 39.7371 14.5879 39.7371Z" fill="#58A3AA"/>
<path d="M30.5953 85.3053C31.0353 85.2786 31.322 85.2519 31.4553 85.2253C32.162 85.1586 32.7153 84.9519 33.1153 84.6053C33.5153 84.2586 33.6953 83.8253 33.6553 83.3053C33.6153 82.6786 33.342 82.2119 32.8353 81.9053C32.3286 81.5853 31.7086 81.4719 30.9753 81.5653C30.4686 81.6319 30.0286 81.8186 29.6553 82.1253C29.2953 82.4319 29.0353 82.7786 28.8753 83.1653C28.7953 83.3786 28.662 83.5453 28.4753 83.6653C28.302 83.7853 28.1086 83.8719 27.8953 83.9253C27.682 83.9786 27.4553 83.9986 27.2153 83.9853C26.9753 83.9719 26.7553 83.9386 26.5553 83.8853C26.2886 83.8053 26.0753 83.6919 25.9153 83.5453C25.7553 83.3986 25.642 83.2253 25.5753 83.0253C25.5086 82.8253 25.4886 82.6119 25.5153 82.3853C25.542 82.1453 25.602 81.9119 25.6953 81.6853C25.8153 81.3653 26.0353 81.0386 26.3553 80.7053C26.6886 80.3586 27.0886 80.0453 27.5553 79.7653C28.0353 79.4719 28.5753 79.2319 29.1753 79.0453C29.7886 78.8586 30.4486 78.7519 31.1553 78.7253C31.9286 78.7119 32.662 78.8119 33.3553 79.0253C34.062 79.2253 34.6753 79.5186 35.1953 79.9053C35.7286 80.2786 36.1486 80.7253 36.4553 81.2453C36.762 81.7653 36.9153 82.3253 36.9153 82.9253C36.9153 83.8853 36.662 84.6586 36.1553 85.2453C35.662 85.8319 34.9953 86.2386 34.1553 86.4653C34.9953 86.5719 35.642 86.8919 36.0953 87.4253C36.562 87.9453 36.7953 88.6386 36.7953 89.5053C36.7953 90.1186 36.662 90.6919 36.3953 91.2253C36.1286 91.7453 35.7553 92.1986 35.2753 92.5853C34.7953 92.9719 34.2153 93.2719 33.5353 93.4853C32.8553 93.7119 32.1086 93.8253 31.2953 93.8253C30.4553 93.8253 29.6953 93.7386 29.0153 93.5653C28.3486 93.3919 27.7753 93.1586 27.2953 92.8653C26.8286 92.5719 26.4686 92.2319 26.2153 91.8453C25.962 91.4453 25.8353 91.0319 25.8353 90.6053C25.8353 90.3253 25.8953 90.0653 26.0153 89.8253C26.1486 89.5853 26.3486 89.4053 26.6153 89.2853C26.7753 89.2053 26.942 89.1453 27.1153 89.1053C27.302 89.0653 27.482 89.0519 27.6553 89.0653C27.842 89.0786 28.0086 89.1253 28.1553 89.2053C28.302 89.2719 28.422 89.3786 28.5153 89.5253C28.822 90.0453 29.222 90.4186 29.7153 90.6453C30.2086 90.8586 30.7886 90.9719 31.4553 90.9853C31.7486 90.9853 32.022 90.9519 32.2753 90.8853C32.5286 90.8186 32.7486 90.7186 32.9353 90.5853C33.122 90.4386 33.2686 90.2653 33.3753 90.0653C33.482 89.8653 33.5353 89.6386 33.5353 89.3853C33.522 89.0386 33.3353 88.7319 32.9753 88.4653C32.6286 88.1853 32.202 88.0253 31.6953 87.9853C31.6153 87.9853 31.4553 87.9786 31.2153 87.9653C30.9753 87.9519 30.7153 87.9386 30.4353 87.9253C30.1686 87.8986 29.9153 87.8786 29.6753 87.8653C29.4353 87.8519 29.2753 87.8453 29.1953 87.8453C28.8886 87.8319 28.662 87.7053 28.5153 87.4653C28.382 87.2253 28.3153 86.9519 28.3153 86.6453C28.3153 86.3386 28.382 86.0719 28.5153 85.8453C28.662 85.6053 28.8886 85.4653 29.1953 85.4253C29.702 85.3586 30.1686 85.3186 30.5953 85.3053ZM48.527 85.5253C48.2737 86.1386 47.907 86.6786 47.427 87.1453C46.947 87.5986 46.367 87.9586 45.687 88.2253C45.0204 88.4786 44.2737 88.6053 43.447 88.6053C42.527 88.6053 41.727 88.4853 41.047 88.2453C40.367 87.9919 39.8004 87.6453 39.347 87.2053C38.8937 86.7519 38.5537 86.2119 38.327 85.5853C38.1137 84.9586 38.007 84.2719 38.007 83.5253C38.007 82.8053 38.1337 82.1253 38.387 81.4853C38.6537 80.8453 39.0337 80.2853 39.527 79.8053C40.0204 79.3253 40.627 78.9453 41.347 78.6653C42.0804 78.3853 42.907 78.2453 43.827 78.2453C44.6804 78.2453 45.427 78.3919 46.067 78.6853C46.707 78.9653 47.2404 79.3453 47.667 79.8253C48.0937 80.3053 48.407 80.8653 48.607 81.5053C48.8204 82.1453 48.927 82.8119 48.927 83.5053C48.927 84.2253 48.7937 84.8986 48.527 85.5253ZM43.387 85.8853C44.107 85.8853 44.6804 85.6653 45.107 85.2253C45.5337 84.7853 45.747 84.1853 45.747 83.4253C45.747 82.6653 45.547 82.0653 45.147 81.6253C44.747 81.1853 44.227 80.9653 43.587 80.9653C42.827 80.9653 42.2337 81.1986 41.807 81.6653C41.3937 82.1319 41.187 82.7453 41.187 83.5053C41.187 84.2519 41.3937 84.8386 41.807 85.2653C42.2204 85.6786 42.747 85.8853 43.387 85.8853ZM53.247 89.3253C53.127 89.4853 52.9337 89.6186 52.667 89.7253C52.587 89.7519 52.4737 89.7786 52.327 89.8053C52.1804 89.8186 52.0204 89.8319 51.847 89.8453C51.6737 89.8453 51.507 89.8386 51.347 89.8253C51.187 89.7986 51.0604 89.7653 50.967 89.7253C50.7937 89.6453 50.6404 89.5253 50.507 89.3653C50.387 89.1919 50.327 88.9719 50.327 88.7053C50.3137 88.1453 50.3004 87.4653 50.287 86.6653C50.287 85.8653 50.2804 85.0386 50.267 84.1853C50.2537 83.3186 50.247 82.4653 50.247 81.6253C50.247 80.7719 50.2537 80.0119 50.267 79.3453C50.267 78.8386 50.4737 78.5053 50.887 78.3453C51.207 78.2253 51.5737 78.1719 51.987 78.1853C52.4004 78.1853 52.7604 78.2453 53.067 78.3653C53.2804 78.4453 53.4204 78.5586 53.487 78.7053C53.567 78.8519 53.607 79.0586 53.607 79.3253C53.6204 79.9519 53.627 80.6919 53.627 81.5453C53.627 82.3853 53.6204 83.2453 53.607 84.1253C53.607 84.9919 53.5937 85.8253 53.567 86.6253C53.5537 87.4253 53.527 88.0919 53.487 88.6253C53.4604 88.9186 53.3804 89.1519 53.247 89.3253ZM53.467 95.1053C53.3337 95.3186 53.1604 95.4386 52.947 95.4653C52.467 95.5186 51.8404 95.5653 51.067 95.6053C50.307 95.6453 49.487 95.6786 48.607 95.7053C47.7404 95.7453 46.8604 95.7786 45.967 95.8053C45.087 95.8319 44.3004 95.8519 43.607 95.8653C42.6737 95.8919 42.1537 95.4386 42.047 94.5053C41.9937 94.0386 41.9404 93.4919 41.887 92.8653C41.847 92.2519 41.827 91.6053 41.827 90.9253C41.827 90.2853 42.047 89.9053 42.487 89.7853C42.7804 89.7053 43.127 89.6586 43.527 89.6453C43.927 89.6186 44.247 89.6186 44.487 89.6453C44.8337 89.6719 45.0604 89.7653 45.167 89.9253C45.287 90.0719 45.3537 90.3186 45.367 90.6653C45.367 90.8786 45.367 91.0719 45.367 91.2453C45.3804 91.4053 45.387 91.5653 45.387 91.7253C45.4004 91.8853 45.407 92.0519 45.407 92.2253C45.4204 92.3986 45.427 92.5986 45.427 92.8253C45.427 93.0653 45.527 93.1853 45.727 93.1853C46.1404 93.1853 46.6604 93.1786 47.287 93.1653C47.927 93.1653 48.587 93.1586 49.267 93.1453C49.9604 93.1319 50.6204 93.1186 51.247 93.1053C51.887 93.0919 52.4137 93.0853 52.827 93.0853C53.3204 93.0853 53.587 93.4319 53.627 94.1253C53.6537 94.5786 53.6004 94.9053 53.467 95.1053Z" fill="#3D8691"/>
</svg>
