<svg width="68" height="75" viewBox="0 0 68 75" fill="none" xmlns="http://www.w3.org/2000/svg">
<g filter="url(#filter0_d_405_732)">
<path d="M2 0H66V58C66 66.2843 59.2843 73 51 73H17C8.71573 73 2 66.2843 2 58V0Z" fill="#3D8691" fill-opacity="0.4" shape-rendering="crispEdges"/>
<g filter="url(#filter1_d_405_732)">
<path d="M31.875 54.9922C31.25 54.9922 30.6771 54.862 30.1562 54.6016C29.6484 54.3542 29.1016 53.9635 28.5156 53.4297L13.75 39.7383C13.3854 39.3867 13.1055 38.9766 12.9102 38.5078C12.7279 38.0391 12.6367 37.5964 12.6367 37.1797C12.6367 36.737 12.7279 36.2878 12.9102 35.832C13.0924 35.3763 13.3724 34.9661 13.75 34.6016L28.5156 20.9688C29.1536 20.3828 29.7201 19.9661 30.2148 19.7188C30.7096 19.4714 31.2565 19.3477 31.8555 19.3477C32.793 19.3477 33.5742 19.6732 34.1992 20.3242C34.8242 20.9622 35.1367 21.7435 35.1367 22.668V28.3906H35.4102C38.3008 28.3906 40.8464 28.8464 43.0469 29.7578C45.2604 30.6562 47.1159 31.9844 48.6133 33.7422C50.1107 35.487 51.237 37.6159 51.9922 40.1289C52.7604 42.6419 53.1445 45.5065 53.1445 48.7227C53.1445 50.7148 52.8646 52.2122 52.3047 53.2148C51.7578 54.2174 50.9831 54.7188 49.9805 54.7188C49.2773 54.7188 48.6589 54.543 48.125 54.1914C47.5911 53.8529 47.0833 53.2539 46.6016 52.3945C45.8854 51.0794 45.026 49.9531 44.0234 49.0156C43.0339 48.0781 41.8359 47.3555 40.4297 46.8477C39.0234 46.3398 37.3503 46.0859 35.4102 46.0859H35.1367V51.7109C35.1367 52.6354 34.8242 53.4102 34.1992 54.0352C33.5742 54.6732 32.7995 54.9922 31.875 54.9922Z" fill="white"/>
</g>
</g>
<defs>
<filter id="filter0_d_405_732" x="0" y="-2" width="68" height="77" filterUnits="userSpaceOnUse" color-interpolation-filters="sRGB">
<feFlood flood-opacity="0" result="BackgroundImageFix"/>
<feColorMatrix in="SourceAlpha" type="matrix" values="0 0 0 0 0 0 0 0 0 0 0 0 0 0 0 0 0 0 127 0" result="hardAlpha"/>
<feOffset/>
<feGaussianBlur stdDeviation="1"/>
<feComposite in2="hardAlpha" operator="out"/>
<feColorMatrix type="matrix" values="0 0 0 0 0 0 0 0 0 0 0 0 0 0 0 0 0 0 0.25 0"/>
<feBlend mode="normal" in2="BackgroundImageFix" result="effect1_dropShadow_405_732"/>
<feBlend mode="normal" in="SourceGraphic" in2="effect1_dropShadow_405_732" result="shape"/>
</filter>
<filter id="filter1_d_405_732" x="8.63672" y="15.3477" width="48.5078" height="43.6445" filterUnits="userSpaceOnUse" color-interpolation-filters="sRGB">
<feFlood flood-opacity="0" result="BackgroundImageFix"/>
<feColorMatrix in="SourceAlpha" type="matrix" values="0 0 0 0 0 0 0 0 0 0 0 0 0 0 0 0 0 0 127 0" result="hardAlpha"/>
<feOffset/>
<feGaussianBlur stdDeviation="2"/>
<feComposite in2="hardAlpha" operator="out"/>
<feColorMatrix type="matrix" values="0 0 0 0 0 0 0 0 0 0 0 0 0 0 0 0 0 0 0.25 0"/>
<feBlend mode="normal" in2="BackgroundImageFix" result="effect1_dropShadow_405_732"/>
<feBlend mode="normal" in="SourceGraphic" in2="effect1_dropShadow_405_732" result="shape"/>
</filter>
</defs>
</svg>
