<svg width="72" height="102" viewBox="0 0 72 102" fill="none" xmlns="http://www.w3.org/2000/svg">
<ellipse cx="34.9265" cy="9.12576" rx="7.41865" ry="7.43777" fill="#58A3AA"/>
<ellipse cx="59.0873" cy="24.8979" rx="8.51702" ry="8.53898" fill="#58A3AA"/>
<path d="M46.1738 47.9764C46.1738 40.8448 51.9551 35.0635 59.0867 35.0635V35.0635C66.2183 35.0635 71.9996 40.8448 71.9996 47.9764V55.2317C71.9996 58.0164 69.7422 60.2738 66.9576 60.2738H51.2159C48.4312 60.2738 46.1738 58.0164 46.1738 55.2317V47.9764Z" fill="#58A3AA"/>
<ellipse cx="12.9135" cy="24.8979" rx="8.51702" ry="8.53898" fill="#58A3AA"/>
<path d="M0.000976562 47.9764C0.000976562 40.8448 5.78229 35.0635 12.9139 35.0635V35.0635C20.0455 35.0635 25.8268 40.8448 25.8268 47.9764V55.2317C25.8268 58.0164 23.5694 60.2738 20.7847 60.2738H5.04304C2.25839 60.2738 0.000976562 58.0164 0.000976562 55.2317V47.9764Z" fill="#58A3AA"/>
<ellipse cx="34.9259" cy="29.19" rx="9.6154" ry="9.64018" fill="#58A3AA"/>
<path d="M20.3477 56.4285C20.3477 48.3772 26.8745 41.8503 34.9258 41.8503V41.8503C42.9772 41.8503 49.504 48.3772 49.504 56.4285V64.6195C49.504 67.7633 46.9555 70.3118 43.8117 70.3118H26.04C22.8962 70.3118 20.3477 67.7633 20.3477 64.6195V56.4285Z" fill="#58A3AA"/>
<path d="M30.7605 88.492C30.7205 89.1987 30.6805 89.9187 30.6405 90.652C31.1072 90.6387 31.5405 90.632 31.9405 90.632C32.3539 90.6187 32.6739 90.612 32.9005 90.612C33.3939 90.612 33.6405 90.9853 33.6405 91.732C33.6405 92.172 33.5739 92.492 33.4405 92.692C33.3072 92.892 33.1205 93.012 32.8805 93.052C32.5739 93.092 32.2072 93.132 31.7805 93.172C31.3672 93.212 30.9339 93.252 30.4805 93.292C30.4405 93.8387 30.4005 94.352 30.3605 94.832C30.3339 95.2987 30.3072 95.7053 30.2805 96.052C30.2405 96.5187 30.1139 96.8653 29.9005 97.092C29.6872 97.3187 29.3272 97.432 28.8205 97.432C28.2739 97.432 27.9072 97.2987 27.7205 97.032C27.5472 96.7787 27.4539 96.4387 27.4405 96.012C27.4272 95.6387 27.4139 95.2453 27.4005 94.832C27.4005 94.4187 27.4005 93.9853 27.4005 93.532C26.9605 93.5587 26.5272 93.5853 26.1005 93.612C25.6739 93.6253 25.2739 93.6453 24.9005 93.672C24.5405 93.6853 24.2139 93.6987 23.9205 93.712C23.6405 93.712 23.4139 93.712 23.2405 93.712C22.6005 93.712 22.0872 93.532 21.7005 93.172C21.3139 92.812 21.1272 92.312 21.1405 91.672C21.1405 91.2187 21.1539 90.6653 21.1805 90.012C21.2205 89.3453 21.2605 88.652 21.3005 87.932C21.3539 87.212 21.4072 86.492 21.4605 85.772C21.5139 85.052 21.5672 84.4053 21.6205 83.832C21.6339 83.672 21.6605 83.5187 21.7005 83.372C21.7539 83.2253 21.8405 83.0987 21.9605 82.992C22.0939 82.872 22.2672 82.7787 22.4805 82.712C22.7072 82.6453 23.0005 82.612 23.3605 82.612C23.7072 82.612 23.9805 82.6453 24.1805 82.712C24.3939 82.7653 24.5539 82.8453 24.6605 82.952C24.7672 83.0587 24.8339 83.192 24.8605 83.352C24.8872 83.4987 24.8939 83.6653 24.8805 83.852C24.8805 83.9053 24.8672 84.092 24.8405 84.412C24.8272 84.7187 24.8005 85.0987 24.7605 85.552C24.7339 86.0053 24.7005 86.4987 24.6605 87.032C24.6339 87.552 24.6072 88.0453 24.5805 88.512C24.5539 88.9787 24.5272 89.3787 24.5005 89.712C24.4872 90.0453 24.4805 90.2453 24.4805 90.312C24.4805 90.5387 24.5139 90.6853 24.5805 90.752C24.6605 90.8053 24.8139 90.8253 25.0405 90.812C25.2672 90.7853 25.6072 90.772 26.0605 90.772C26.5139 90.7587 26.9739 90.7453 27.4405 90.732C27.4672 89.5187 27.5005 88.3187 27.5405 87.132C27.5805 85.932 27.6405 84.7653 27.7205 83.632C27.7339 83.4587 27.7539 83.2987 27.7805 83.152C27.8205 83.0053 27.8939 82.8853 28.0005 82.792C28.1205 82.6853 28.2872 82.612 28.5005 82.572C28.7272 82.5187 29.0272 82.4987 29.4005 82.512C29.7472 82.5387 30.0205 82.592 30.2205 82.672C30.4339 82.7387 30.5939 82.832 30.7005 82.952C30.8205 83.072 30.8939 83.212 30.9205 83.372C30.9605 83.5187 30.9805 83.6853 30.9805 83.872C30.9805 84.112 30.9672 84.4653 30.9405 84.932C30.9272 85.3853 30.9072 85.9187 30.8805 86.532C30.8539 87.132 30.8139 87.7853 30.7605 88.492ZM45.1618 89.192C44.9085 89.8053 44.5418 90.3453 44.0618 90.812C43.5818 91.2653 43.0018 91.6253 42.3218 91.892C41.6551 92.1453 40.9085 92.272 40.0818 92.272C39.1618 92.272 38.3618 92.152 37.6818 91.912C37.0018 91.6587 36.4351 91.312 35.9818 90.872C35.5285 90.4187 35.1885 89.8787 34.9618 89.252C34.7485 88.6253 34.6418 87.9387 34.6418 87.192C34.6418 86.472 34.7685 85.792 35.0218 85.152C35.2885 84.512 35.6685 83.952 36.1618 83.472C36.6551 82.992 37.2618 82.612 37.9818 82.332C38.7151 82.052 39.5418 81.912 40.4618 81.912C41.3151 81.912 42.0618 82.0587 42.7018 82.352C43.3418 82.632 43.8751 83.012 44.3018 83.492C44.7285 83.972 45.0418 84.532 45.2418 85.172C45.4551 85.812 45.5618 86.4787 45.5618 87.172C45.5618 87.892 45.4285 88.5653 45.1618 89.192ZM40.0218 89.552C40.7418 89.552 41.3151 89.332 41.7418 88.892C42.1685 88.452 42.3818 87.852 42.3818 87.092C42.3818 86.332 42.1818 85.732 41.7818 85.292C41.3818 84.852 40.8618 84.632 40.2218 84.632C39.4618 84.632 38.8685 84.8653 38.4418 85.332C38.0285 85.7987 37.8218 86.412 37.8218 87.172C37.8218 87.9187 38.0285 88.5053 38.4418 88.932C38.8551 89.3453 39.3818 89.552 40.0218 89.552ZM49.8818 92.992C49.7618 93.152 49.5685 93.2853 49.3018 93.392C49.2218 93.4187 49.1085 93.4453 48.9618 93.472C48.8151 93.4853 48.6551 93.4987 48.4818 93.512C48.3085 93.512 48.1418 93.5053 47.9818 93.492C47.8218 93.4653 47.6951 93.432 47.6018 93.392C47.4285 93.312 47.2751 93.192 47.1418 93.032C47.0218 92.8587 46.9618 92.6387 46.9618 92.372C46.9485 91.812 46.9351 91.132 46.9218 90.332C46.9218 89.532 46.9151 88.7053 46.9018 87.852C46.8885 86.9853 46.8818 86.132 46.8818 85.292C46.8818 84.4387 46.8885 83.6787 46.9018 83.012C46.9018 82.5053 47.1085 82.172 47.5218 82.012C47.8418 81.892 48.2085 81.8387 48.6218 81.852C49.0351 81.852 49.3951 81.912 49.7018 82.032C49.9151 82.112 50.0551 82.2253 50.1218 82.372C50.2018 82.5187 50.2418 82.7253 50.2418 82.992C50.2551 83.6187 50.2618 84.3587 50.2618 85.212C50.2618 86.052 50.2551 86.912 50.2418 87.792C50.2418 88.6587 50.2285 89.492 50.2018 90.292C50.1885 91.092 50.1618 91.7587 50.1218 92.292C50.0951 92.5853 50.0151 92.8187 49.8818 92.992ZM50.1018 98.772C49.9685 98.9853 49.7951 99.1053 49.5818 99.132C49.1018 99.1853 48.4751 99.232 47.7018 99.272C46.9418 99.312 46.1218 99.3453 45.2418 99.372C44.3751 99.412 43.4951 99.4453 42.6018 99.472C41.7218 99.4987 40.9351 99.5187 40.2418 99.532C39.3085 99.5587 38.7885 99.1053 38.6818 98.172C38.6285 97.7053 38.5751 97.1587 38.5218 96.532C38.4818 95.9187 38.4618 95.272 38.4618 94.592C38.4618 93.952 38.6818 93.572 39.1218 93.452C39.4151 93.372 39.7618 93.3253 40.1618 93.312C40.5618 93.2853 40.8818 93.2853 41.1218 93.312C41.4685 93.3387 41.6951 93.432 41.8018 93.592C41.9218 93.7387 41.9885 93.9853 42.0018 94.332C42.0018 94.5453 42.0018 94.7387 42.0018 94.912C42.0151 95.072 42.0218 95.232 42.0218 95.392C42.0351 95.552 42.0418 95.7187 42.0418 95.892C42.0551 96.0653 42.0618 96.2653 42.0618 96.492C42.0618 96.732 42.1618 96.852 42.3618 96.852C42.7751 96.852 43.2951 96.8453 43.9218 96.832C44.5618 96.832 45.2218 96.8253 45.9018 96.812C46.5951 96.7987 47.2551 96.7853 47.8818 96.772C48.5218 96.7587 49.0485 96.752 49.4618 96.752C49.9551 96.752 50.2218 97.0987 50.2618 97.792C50.2885 98.2453 50.2351 98.572 50.1018 98.772Z" fill="#3D8691"/>
</svg>
