<svg width="80" height="102" viewBox="0 0 80 102" fill="none" xmlns="http://www.w3.org/2000/svg">
<ellipse cx="39.8772" cy="17.1267" rx="11.7688" ry="11.7722" fill="#58A3AA"/>
<ellipse cx="64.9331" cy="27.5906" rx="9.87059" ry="9.90364" fill="#58A3AA"/>
<ellipse cx="14.8208" cy="27.5906" rx="9.87059" ry="9.90364" fill="#58A3AA"/>
<path d="M22.0342 48.9841C22.0342 39.1297 30.0228 31.1411 39.8772 31.1411V31.1411C49.7316 31.1411 57.7202 39.1297 57.7202 48.9841V58.946C57.7202 62.7851 54.608 65.8973 50.7689 65.8973H28.9854C25.1463 65.8973 22.0342 62.7851 22.0342 58.946V48.9841Z" fill="#58A3AA"/>
<path d="M65.4111 39.7368C73.04 39.737 79.2244 45.9214 79.2246 53.5503V61.2632C79.2246 64.2354 76.8149 66.645 73.8428 66.645H56.9785C56.7324 66.645 56.4903 66.6262 56.2529 66.5942C58.9235 65.299 60.7654 62.5623 60.7656 59.395V47.9331C60.7656 45.5103 60.3439 43.1859 59.5732 41.0278C61.3465 40.1998 63.3249 39.7368 65.4111 39.7368Z" fill="#58A3AA"/>
<path d="M14.5879 39.7368C6.95896 39.737 0.774666 45.9214 0.774414 53.5503V61.2632C0.774414 64.2354 3.18407 66.645 6.15625 66.645H23.0205C23.2667 66.645 23.5087 66.6262 23.7461 66.5942C21.0755 65.299 19.2336 62.5623 19.2334 59.395V47.9331C19.2334 45.5102 19.6551 43.1859 20.4258 41.0278C18.6525 40.1998 16.6742 39.7368 14.5879 39.7368Z" fill="#58A3AA"/>
<path d="M30.5953 85.3055C31.0353 85.2788 31.322 85.2522 31.4553 85.2255C32.162 85.1588 32.7153 84.9522 33.1153 84.6055C33.5153 84.2588 33.6953 83.8255 33.6553 83.3055C33.6153 82.6788 33.342 82.2122 32.8353 81.9055C32.3286 81.5855 31.7086 81.4722 30.9753 81.5655C30.4686 81.6322 30.0286 81.8188 29.6553 82.1255C29.2953 82.4322 29.0353 82.7788 28.8753 83.1655C28.7953 83.3788 28.662 83.5455 28.4753 83.6655C28.302 83.7855 28.1086 83.8722 27.8953 83.9255C27.682 83.9788 27.4553 83.9988 27.2153 83.9855C26.9753 83.9722 26.7553 83.9388 26.5553 83.8855C26.2886 83.8055 26.0753 83.6922 25.9153 83.5455C25.7553 83.3988 25.642 83.2255 25.5753 83.0255C25.5086 82.8255 25.4886 82.6122 25.5153 82.3855C25.542 82.1455 25.602 81.9122 25.6953 81.6855C25.8153 81.3655 26.0353 81.0388 26.3553 80.7055C26.6886 80.3588 27.0886 80.0455 27.5553 79.7655C28.0353 79.4722 28.5753 79.2322 29.1753 79.0455C29.7886 78.8588 30.4486 78.7522 31.1553 78.7255C31.9286 78.7122 32.662 78.8122 33.3553 79.0255C34.062 79.2255 34.6753 79.5188 35.1953 79.9055C35.7286 80.2788 36.1486 80.7255 36.4553 81.2455C36.762 81.7655 36.9153 82.3255 36.9153 82.9255C36.9153 83.8855 36.662 84.6588 36.1553 85.2455C35.662 85.8322 34.9953 86.2388 34.1553 86.4655C34.9953 86.5722 35.642 86.8922 36.0953 87.4255C36.562 87.9455 36.7953 88.6388 36.7953 89.5055C36.7953 90.1188 36.662 90.6922 36.3953 91.2255C36.1286 91.7455 35.7553 92.1988 35.2753 92.5855C34.7953 92.9722 34.2153 93.2722 33.5353 93.4855C32.8553 93.7122 32.1086 93.8255 31.2953 93.8255C30.4553 93.8255 29.6953 93.7388 29.0153 93.5655C28.3486 93.3922 27.7753 93.1588 27.2953 92.8655C26.8286 92.5722 26.4686 92.2322 26.2153 91.8455C25.962 91.4455 25.8353 91.0322 25.8353 90.6055C25.8353 90.3255 25.8953 90.0655 26.0153 89.8255C26.1486 89.5855 26.3486 89.4055 26.6153 89.2855C26.7753 89.2055 26.942 89.1455 27.1153 89.1055C27.302 89.0655 27.482 89.0522 27.6553 89.0655C27.842 89.0788 28.0086 89.1255 28.1553 89.2055C28.302 89.2722 28.422 89.3788 28.5153 89.5255C28.822 90.0455 29.222 90.4188 29.7153 90.6455C30.2086 90.8588 30.7886 90.9722 31.4553 90.9855C31.7486 90.9855 32.022 90.9522 32.2753 90.8855C32.5286 90.8188 32.7486 90.7188 32.9353 90.5855C33.122 90.4388 33.2686 90.2655 33.3753 90.0655C33.482 89.8655 33.5353 89.6388 33.5353 89.3855C33.522 89.0388 33.3353 88.7322 32.9753 88.4655C32.6286 88.1855 32.202 88.0255 31.6953 87.9855C31.6153 87.9855 31.4553 87.9788 31.2153 87.9655C30.9753 87.9522 30.7153 87.9388 30.4353 87.9255C30.1686 87.8988 29.9153 87.8788 29.6753 87.8655C29.4353 87.8522 29.2753 87.8455 29.1953 87.8455C28.8886 87.8322 28.662 87.7055 28.5153 87.4655C28.382 87.2255 28.3153 86.9522 28.3153 86.6455C28.3153 86.3388 28.382 86.0722 28.5153 85.8455C28.662 85.6055 28.8886 85.4655 29.1953 85.4255C29.702 85.3588 30.1686 85.3188 30.5953 85.3055ZM48.527 85.5255C48.2737 86.1388 47.907 86.6788 47.427 87.1455C46.947 87.5988 46.367 87.9588 45.687 88.2255C45.0204 88.4788 44.2737 88.6055 43.447 88.6055C42.527 88.6055 41.727 88.4855 41.047 88.2455C40.367 87.9922 39.8004 87.6455 39.347 87.2055C38.8937 86.7522 38.5537 86.2122 38.327 85.5855C38.1137 84.9588 38.007 84.2722 38.007 83.5255C38.007 82.8055 38.1337 82.1255 38.387 81.4855C38.6537 80.8455 39.0337 80.2855 39.527 79.8055C40.0204 79.3255 40.627 78.9455 41.347 78.6655C42.0804 78.3855 42.907 78.2455 43.827 78.2455C44.6804 78.2455 45.427 78.3922 46.067 78.6855C46.707 78.9655 47.2404 79.3455 47.667 79.8255C48.0937 80.3055 48.407 80.8655 48.607 81.5055C48.8204 82.1455 48.927 82.8122 48.927 83.5055C48.927 84.2255 48.7937 84.8988 48.527 85.5255ZM43.387 85.8855C44.107 85.8855 44.6804 85.6655 45.107 85.2255C45.5337 84.7855 45.747 84.1855 45.747 83.4255C45.747 82.6655 45.547 82.0655 45.147 81.6255C44.747 81.1855 44.227 80.9655 43.587 80.9655C42.827 80.9655 42.2337 81.1988 41.807 81.6655C41.3937 82.1322 41.187 82.7455 41.187 83.5055C41.187 84.2522 41.3937 84.8388 41.807 85.2655C42.2204 85.6788 42.747 85.8855 43.387 85.8855ZM53.247 89.3255C53.127 89.4855 52.9337 89.6188 52.667 89.7255C52.587 89.7522 52.4737 89.7788 52.327 89.8055C52.1804 89.8188 52.0204 89.8322 51.847 89.8455C51.6737 89.8455 51.507 89.8388 51.347 89.8255C51.187 89.7988 51.0604 89.7655 50.967 89.7255C50.7937 89.6455 50.6404 89.5255 50.507 89.3655C50.387 89.1922 50.327 88.9722 50.327 88.7055C50.3137 88.1455 50.3004 87.4655 50.287 86.6655C50.287 85.8655 50.2804 85.0388 50.267 84.1855C50.2537 83.3188 50.247 82.4655 50.247 81.6255C50.247 80.7722 50.2537 80.0122 50.267 79.3455C50.267 78.8388 50.4737 78.5055 50.887 78.3455C51.207 78.2255 51.5737 78.1722 51.987 78.1855C52.4004 78.1855 52.7604 78.2455 53.067 78.3655C53.2804 78.4455 53.4204 78.5588 53.487 78.7055C53.567 78.8522 53.607 79.0588 53.607 79.3255C53.6204 79.9522 53.627 80.6922 53.627 81.5455C53.627 82.3855 53.6204 83.2455 53.607 84.1255C53.607 84.9922 53.5937 85.8255 53.567 86.6255C53.5537 87.4255 53.527 88.0922 53.487 88.6255C53.4604 88.9188 53.3804 89.1522 53.247 89.3255ZM53.467 95.1055C53.3337 95.3188 53.1604 95.4388 52.947 95.4655C52.467 95.5188 51.8404 95.5655 51.067 95.6055C50.307 95.6455 49.487 95.6788 48.607 95.7055C47.7404 95.7455 46.8604 95.7788 45.967 95.8055C45.087 95.8322 44.3004 95.8522 43.607 95.8655C42.6737 95.8922 42.1537 95.4388 42.047 94.5055C41.9937 94.0388 41.9404 93.4922 41.887 92.8655C41.847 92.2522 41.827 91.6055 41.827 90.9255C41.827 90.2855 42.047 89.9055 42.487 89.7855C42.7804 89.7055 43.127 89.6588 43.527 89.6455C43.927 89.6188 44.247 89.6188 44.487 89.6455C44.8337 89.6722 45.0604 89.7655 45.167 89.9255C45.287 90.0722 45.3537 90.3188 45.367 90.6655C45.367 90.8788 45.367 91.0722 45.367 91.2455C45.3804 91.4055 45.387 91.5655 45.387 91.7255C45.4004 91.8855 45.407 92.0522 45.407 92.2255C45.4204 92.3988 45.427 92.5988 45.427 92.8255C45.427 93.0655 45.527 93.1855 45.727 93.1855C46.1404 93.1855 46.6604 93.1788 47.287 93.1655C47.927 93.1655 48.587 93.1588 49.267 93.1455C49.9604 93.1322 50.6204 93.1188 51.247 93.1055C51.887 93.0922 52.4137 93.0855 52.827 93.0855C53.3204 93.0855 53.587 93.4322 53.627 94.1255C53.6537 94.5788 53.6004 94.9055 53.467 95.1055Z" fill="#3D8691"/>
</svg>
