<svg width="78" height="102" viewBox="0 0 78 102" fill="none" xmlns="http://www.w3.org/2000/svg">
<ellipse cx="21.0119" cy="15.918" rx="13.4289" ry="12.7793" fill="#58A3AA"/>
<path d="M0.651367 51.4917C0.651367 40.2473 9.7668 31.1318 21.0112 31.1318V31.1318C32.2557 31.1318 41.3711 40.2473 41.3711 51.4917V61.3154C41.3711 65.4829 37.9927 68.8613 33.8252 68.8613H8.19726C4.02978 68.8613 0.651367 65.4829 0.651367 61.3154V51.4917Z" fill="#58A3AA"/>
<path d="M52.9883 28.8818C65.4751 28.8821 75.5977 39.0053 75.5977 51.4922V61.3154C75.5976 66.7255 71.2119 71.1113 65.8018 71.1113H40.1738C34.7637 71.1113 30.3779 66.7255 30.3779 61.3154V51.4922C30.3779 39.0051 40.5012 28.8818 52.9883 28.8818Z" fill="#58A3AA" stroke="#EBE1C8" stroke-width="4.5"/>
<ellipse cx="52.9874" cy="15.918" rx="13.4289" ry="12.7793" fill="#58A3AA"/>
<path d="M33.507 94.7613C33.307 94.988 33.0536 95.128 32.747 95.1813C31.4936 95.368 30.1603 95.508 28.747 95.6013C27.3336 95.708 25.907 95.7747 24.467 95.8013C24.2536 95.8013 24.0736 95.768 23.927 95.7013C23.7803 95.6347 23.6603 95.5413 23.567 95.4213C23.4736 95.3147 23.4003 95.1813 23.347 95.0213C23.2936 94.8747 23.2603 94.7213 23.247 94.5613C23.207 94.2547 23.2536 93.9813 23.387 93.7413C23.5203 93.5013 23.6803 93.2813 23.867 93.0813C23.907 93.028 24.0336 92.908 24.247 92.7213C24.4603 92.5213 24.707 92.288 24.987 92.0213C25.2803 91.7413 25.5936 91.448 25.927 91.1413C26.2736 90.8213 26.6003 90.5213 26.907 90.2413C27.2136 89.948 27.4803 89.6947 27.707 89.4813C27.947 89.2547 28.1136 89.1013 28.207 89.0213C28.8603 88.3947 29.3936 87.828 29.807 87.3213C30.2203 86.8147 30.447 86.3347 30.487 85.8813C30.5536 85.2547 30.3936 84.7547 30.007 84.3813C29.6203 83.9947 29.0003 83.8213 28.147 83.8613C27.8936 83.8747 27.6403 83.928 27.387 84.0213C27.147 84.1147 26.9203 84.248 26.707 84.4213C26.4936 84.5813 26.3003 84.7747 26.127 85.0013C25.967 85.2147 25.847 85.448 25.767 85.7013C25.7003 85.928 25.587 86.1147 25.427 86.2613C25.267 86.3947 25.087 86.5013 24.887 86.5813C24.687 86.648 24.4736 86.688 24.247 86.7013C24.0203 86.7013 23.8003 86.6747 23.587 86.6213C23.2403 86.5147 22.9603 86.3413 22.747 86.1013C22.5336 85.8613 22.4336 85.5813 22.447 85.2613C22.4736 84.7413 22.6403 84.2347 22.947 83.7413C23.2536 83.248 23.6603 82.808 24.167 82.4213C24.687 82.0213 25.287 81.6947 25.967 81.4413C26.6603 81.1747 27.4003 81.008 28.187 80.9413C28.947 80.8747 29.6736 80.9347 30.367 81.1213C31.0736 81.2947 31.6936 81.5747 32.227 81.9613C32.7603 82.3347 33.1803 82.7947 33.487 83.3413C33.807 83.888 33.967 84.488 33.967 85.1413C33.967 85.9413 33.8003 86.688 33.467 87.3813C33.1336 88.0747 32.587 88.788 31.827 89.5213C31.507 89.828 31.1736 90.1413 30.827 90.4613C30.4803 90.7813 30.127 91.0947 29.767 91.4013C29.4203 91.708 29.0803 92.0013 28.747 92.2813C28.427 92.548 28.1336 92.7813 27.867 92.9813C28.7736 92.9013 29.6403 92.8347 30.467 92.7813C31.2936 92.728 32.067 92.688 32.787 92.6613C33.0803 92.648 33.3136 92.7347 33.487 92.9213C33.6736 93.108 33.7736 93.3813 33.787 93.7413C33.8003 94.1947 33.707 94.5347 33.507 94.7613ZM45.5954 87.7413C45.3421 88.3547 44.9754 88.8947 44.4954 89.3613C44.0154 89.8147 43.4354 90.1747 42.7554 90.4413C42.0887 90.6947 41.3421 90.8213 40.5154 90.8213C39.5954 90.8213 38.7954 90.7013 38.1154 90.4613C37.4354 90.208 36.8687 89.8613 36.4154 89.4213C35.9621 88.968 35.6221 88.428 35.3954 87.8013C35.1821 87.1747 35.0754 86.488 35.0754 85.7413C35.0754 85.0213 35.2021 84.3413 35.4554 83.7013C35.7221 83.0613 36.1021 82.5013 36.5954 82.0213C37.0887 81.5413 37.6954 81.1613 38.4154 80.8813C39.1487 80.6013 39.9754 80.4613 40.8954 80.4613C41.7487 80.4613 42.4954 80.608 43.1354 80.9013C43.7754 81.1813 44.3087 81.5613 44.7354 82.0413C45.1621 82.5213 45.4754 83.0813 45.6754 83.7213C45.8887 84.3613 45.9954 85.028 45.9954 85.7213C45.9954 86.4413 45.8621 87.1147 45.5954 87.7413ZM40.4554 88.1013C41.1754 88.1013 41.7487 87.8813 42.1754 87.4413C42.6021 87.0013 42.8154 86.4013 42.8154 85.6413C42.8154 84.8813 42.6154 84.2813 42.2154 83.8413C41.8154 83.4013 41.2954 83.1813 40.6554 83.1813C39.8954 83.1813 39.3021 83.4147 38.8754 83.8813C38.4621 84.348 38.2554 84.9613 38.2554 85.7213C38.2554 86.468 38.4621 87.0547 38.8754 87.4813C39.2887 87.8947 39.8154 88.1013 40.4554 88.1013ZM50.3154 91.5413C50.1954 91.7013 50.0021 91.8347 49.7354 91.9413C49.6554 91.968 49.5421 91.9947 49.3954 92.0213C49.2487 92.0347 49.0887 92.048 48.9154 92.0613C48.7421 92.0613 48.5754 92.0547 48.4154 92.0413C48.2554 92.0147 48.1287 91.9813 48.0354 91.9413C47.8621 91.8613 47.7087 91.7413 47.5754 91.5813C47.4554 91.408 47.3954 91.188 47.3954 90.9213C47.3821 90.3613 47.3687 89.6813 47.3554 88.8813C47.3554 88.0813 47.3487 87.2547 47.3354 86.4013C47.3221 85.5347 47.3154 84.6813 47.3154 83.8413C47.3154 82.988 47.3221 82.228 47.3354 81.5613C47.3354 81.0547 47.5421 80.7213 47.9554 80.5613C48.2754 80.4413 48.6421 80.388 49.0554 80.4013C49.4687 80.4013 49.8287 80.4613 50.1354 80.5813C50.3487 80.6613 50.4887 80.7747 50.5554 80.9213C50.6354 81.068 50.6754 81.2747 50.6754 81.5413C50.6887 82.168 50.6954 82.908 50.6954 83.7613C50.6954 84.6013 50.6887 85.4613 50.6754 86.3413C50.6754 87.208 50.6621 88.0413 50.6354 88.8413C50.6221 89.6413 50.5954 90.308 50.5554 90.8413C50.5287 91.1347 50.4487 91.368 50.3154 91.5413ZM50.5354 97.3213C50.4021 97.5347 50.2287 97.6547 50.0154 97.6813C49.5354 97.7347 48.9087 97.7813 48.1354 97.8213C47.3754 97.8613 46.5554 97.8947 45.6754 97.9213C44.8087 97.9613 43.9287 97.9947 43.0354 98.0213C42.1554 98.048 41.3687 98.068 40.6754 98.0813C39.7421 98.108 39.2221 97.6547 39.1154 96.7213C39.0621 96.2547 39.0087 95.708 38.9554 95.0813C38.9154 94.468 38.8954 93.8213 38.8954 93.1413C38.8954 92.5013 39.1154 92.1213 39.5554 92.0013C39.8487 91.9213 40.1954 91.8747 40.5954 91.8613C40.9954 91.8347 41.3154 91.8347 41.5554 91.8613C41.9021 91.888 42.1287 91.9813 42.2354 92.1413C42.3554 92.288 42.4221 92.5347 42.4354 92.8813C42.4354 93.0947 42.4354 93.288 42.4354 93.4613C42.4487 93.6213 42.4554 93.7813 42.4554 93.9413C42.4687 94.1013 42.4754 94.268 42.4754 94.4413C42.4887 94.6147 42.4954 94.8147 42.4954 95.0413C42.4954 95.2813 42.5954 95.4013 42.7954 95.4013C43.2087 95.4013 43.7287 95.3947 44.3554 95.3813C44.9954 95.3813 45.6554 95.3747 46.3354 95.3613C47.0287 95.348 47.6887 95.3347 48.3154 95.3213C48.9554 95.308 49.4821 95.3013 49.8954 95.3013C50.3887 95.3013 50.6554 95.648 50.6954 96.3413C50.7221 96.7947 50.6687 97.1213 50.5354 97.3213Z" fill="#3D8691"/>
</svg>
