<svg width="400" height="79" viewBox="0 0 400 79" fill="none" xmlns="http://www.w3.org/2000/svg">
<mask id="path-1-inside-1_903_1680" fill="white">
<path d="M0 0H400V79H0V0Z"/>
</mask>
<path d="M0 0H400V79H0V0Z" fill="url(#paint0_linear_903_1680)"/>
<path d="M0 0V2H400V0V-2H0V0ZM400 79V77H0V79V81H400V79Z" fill="url(#paint1_linear_903_1680)" mask="url(#path-1-inside-1_903_1680)"/>
<mask id="path-3-outside-2_903_1680" maskUnits="userSpaceOnUse" x="134" y="18" width="131" height="42" fill="black">
<rect fill="white" x="134" y="18" width="131" height="42"/>
<path d="M149.347 56.5859C146.159 56.5859 144.425 55.0625 143.441 51.3828L137.581 29.5625C137.253 28.3203 137.019 26.9141 137.019 26.0234C137.019 23.2109 138.823 21.5938 141.917 21.5938C144.519 21.5938 146.066 23.0234 146.652 26L150.12 43.5547H150.308L154.55 25.5312C155.183 22.8359 156.659 21.5938 159.191 21.5938C161.628 21.5938 163.222 22.9531 163.831 25.5312L168.073 43.5547H168.261L171.73 26C172.316 23.0234 173.863 21.5938 176.464 21.5938C179.558 21.5938 181.363 23.2109 181.363 26.0234C181.363 26.8906 181.152 28.2734 180.8 29.5625L174.917 51.4531C173.933 55.0391 172.198 56.5859 169.105 56.5859C165.847 56.5859 164.089 55.0625 163.128 51.4062L159.284 36.6406H159.097L155.253 51.4062C154.339 54.9688 152.488 56.5859 149.347 56.5859ZM195.467 56.5859C192.303 56.5859 190.498 54.7109 190.498 51.3828V26.7969C190.498 23.4688 192.303 21.5938 195.467 21.5938C198.631 21.5938 200.436 23.4688 200.436 26.7969V51.3828C200.436 54.7109 198.631 56.5859 195.467 56.5859ZM214.611 56.5859C211.634 56.5859 209.923 54.8516 209.923 51.6641V26.1875C209.923 23.1875 211.564 21.5938 214.611 21.5938C216.416 21.5938 217.798 22.4141 219.228 24.3125L230.689 39.7109H230.877V26.5156C230.877 23.3281 232.611 21.5938 235.564 21.5938C238.541 21.5938 240.252 23.3281 240.252 26.5156V51.9922C240.252 54.9688 238.634 56.5859 235.681 56.5859C233.783 56.5859 232.447 55.7891 231.041 53.8672L219.486 38.1875H219.298V51.6641C219.298 54.8516 217.564 56.5859 214.611 56.5859ZM256.184 45.3125C253.419 45.3125 252.059 43.7188 251.966 40.9062L251.473 27.7812C251.45 27.2891 251.427 26.75 251.427 26.3516C251.427 23.3281 253.184 21.5938 256.208 21.5938C259.231 21.5938 260.942 23.3281 260.942 26.3516C260.942 26.75 260.919 27.2891 260.895 27.7812L260.403 40.9062C260.309 43.7188 258.927 45.3125 256.184 45.3125ZM256.184 56.9375C253.419 56.9375 251.192 54.875 251.192 52.25C251.192 49.6484 253.419 47.5859 256.184 47.5859C258.903 47.5859 261.153 49.6484 261.153 52.25C261.153 54.875 258.903 56.9375 256.184 56.9375Z"/>
</mask>
<path d="M149.347 56.5859C146.159 56.5859 144.425 55.0625 143.441 51.3828L137.581 29.5625C137.253 28.3203 137.019 26.9141 137.019 26.0234C137.019 23.2109 138.823 21.5938 141.917 21.5938C144.519 21.5938 146.066 23.0234 146.652 26L150.12 43.5547H150.308L154.55 25.5312C155.183 22.8359 156.659 21.5938 159.191 21.5938C161.628 21.5938 163.222 22.9531 163.831 25.5312L168.073 43.5547H168.261L171.73 26C172.316 23.0234 173.863 21.5938 176.464 21.5938C179.558 21.5938 181.363 23.2109 181.363 26.0234C181.363 26.8906 181.152 28.2734 180.8 29.5625L174.917 51.4531C173.933 55.0391 172.198 56.5859 169.105 56.5859C165.847 56.5859 164.089 55.0625 163.128 51.4062L159.284 36.6406H159.097L155.253 51.4062C154.339 54.9688 152.488 56.5859 149.347 56.5859ZM195.467 56.5859C192.303 56.5859 190.498 54.7109 190.498 51.3828V26.7969C190.498 23.4688 192.303 21.5938 195.467 21.5938C198.631 21.5938 200.436 23.4688 200.436 26.7969V51.3828C200.436 54.7109 198.631 56.5859 195.467 56.5859ZM214.611 56.5859C211.634 56.5859 209.923 54.8516 209.923 51.6641V26.1875C209.923 23.1875 211.564 21.5938 214.611 21.5938C216.416 21.5938 217.798 22.4141 219.228 24.3125L230.689 39.7109H230.877V26.5156C230.877 23.3281 232.611 21.5938 235.564 21.5938C238.541 21.5938 240.252 23.3281 240.252 26.5156V51.9922C240.252 54.9688 238.634 56.5859 235.681 56.5859C233.783 56.5859 232.447 55.7891 231.041 53.8672L219.486 38.1875H219.298V51.6641C219.298 54.8516 217.564 56.5859 214.611 56.5859ZM256.184 45.3125C253.419 45.3125 252.059 43.7188 251.966 40.9062L251.473 27.7812C251.45 27.2891 251.427 26.75 251.427 26.3516C251.427 23.3281 253.184 21.5938 256.208 21.5938C259.231 21.5938 260.942 23.3281 260.942 26.3516C260.942 26.75 260.919 27.2891 260.895 27.7812L260.403 40.9062C260.309 43.7188 258.927 45.3125 256.184 45.3125ZM256.184 56.9375C253.419 56.9375 251.192 54.875 251.192 52.25C251.192 49.6484 253.419 47.5859 256.184 47.5859C258.903 47.5859 261.153 49.6484 261.153 52.25C261.153 54.875 258.903 56.9375 256.184 56.9375Z" fill="url(#paint2_linear_903_1680)"/>
<path d="M143.441 51.3828L146.339 50.6075L146.338 50.6048L143.441 51.3828ZM137.581 29.5625L134.681 30.3287L134.684 30.3405L137.581 29.5625ZM146.652 26L143.708 26.5794L143.708 26.5815L146.652 26ZM150.12 43.5547L147.177 44.1362L147.655 46.5547H150.12V43.5547ZM150.308 43.5547V46.5547H152.684L153.228 44.242L150.308 43.5547ZM154.55 25.5312L157.47 26.2186L157.471 26.217L154.55 25.5312ZM163.831 25.5312L166.751 24.8439L166.751 24.8412L163.831 25.5312ZM168.073 43.5547L165.153 44.242L165.698 46.5547H168.073V43.5547ZM168.261 43.5547V46.5547H170.726L171.204 44.1362L168.261 43.5547ZM171.73 26L174.673 26.5815L174.673 26.5794L171.73 26ZM180.8 29.5625L177.906 28.7731L177.903 28.7839L180.8 29.5625ZM174.917 51.4531L177.81 52.2473L177.812 52.2395L177.814 52.2317L174.917 51.4531ZM163.128 51.4062L160.225 52.162L160.227 52.1688L163.128 51.4062ZM159.284 36.6406L162.188 35.8849L161.603 33.6406H159.284V36.6406ZM159.097 36.6406V33.6406H156.778L156.194 35.8849L159.097 36.6406ZM155.253 51.4062L152.35 50.6505L152.347 50.6607L155.253 51.4062ZM149.347 56.5859V53.5859C148.249 53.5859 147.804 53.336 147.55 53.1125C147.225 52.8266 146.758 52.1747 146.339 50.6075L143.441 51.3828L140.543 52.1581C141.108 54.2706 142 56.2202 143.585 57.616C145.242 59.0742 147.258 59.5859 149.347 59.5859V56.5859ZM143.441 51.3828L146.338 50.6048L140.479 28.7845L137.581 29.5625L134.684 30.3405L140.543 52.1608L143.441 51.3828ZM137.581 29.5625L140.482 28.7963C140.184 27.6706 140.019 26.5465 140.019 26.0234H137.019H134.019C134.019 27.2817 134.322 28.97 134.681 30.3287L137.581 29.5625ZM137.019 26.0234H140.019C140.019 25.2836 140.234 25.0565 140.317 24.9815C140.444 24.8668 140.865 24.5938 141.917 24.5938V21.5938V18.5938C139.875 18.5938 137.847 19.1292 136.298 20.5263C134.706 21.963 134.019 23.9508 134.019 26.0234H137.019ZM141.917 21.5938V24.5938C142.642 24.5938 142.888 24.7761 142.998 24.8785C143.161 25.0293 143.487 25.4584 143.708 26.5794L146.652 26L149.595 25.4206C149.23 23.565 148.49 21.791 147.082 20.4829C145.622 19.1263 143.794 18.5938 141.917 18.5938V21.5938ZM146.652 26L143.708 26.5815L147.177 44.1362L150.12 43.5547L153.063 42.9731L149.595 25.4185L146.652 26ZM150.12 43.5547V46.5547H150.308V43.5547V40.5547H150.12V43.5547ZM150.308 43.5547L153.228 44.242L157.47 26.2186L154.55 25.5312L151.63 24.8439L147.388 42.8674L150.308 43.5547ZM154.55 25.5312L157.471 26.217C157.698 25.2502 157.986 24.9356 158.097 24.8413C158.178 24.7727 158.424 24.5938 159.191 24.5938V21.5938V18.5938C157.426 18.5938 155.668 19.0359 154.22 20.2623C152.802 21.4629 152.035 23.117 151.629 24.8455L154.55 25.5312ZM159.191 21.5938V24.5938C159.829 24.5938 160.109 24.7588 160.254 24.8819C160.423 25.0258 160.712 25.3779 160.912 26.2213L163.831 25.5312L166.751 24.8412C166.341 23.1065 165.528 21.4898 164.139 20.3095C162.725 19.1084 160.99 18.5938 159.191 18.5938V21.5938ZM163.831 25.5312L160.911 26.2186L165.153 44.242L168.073 43.5547L170.994 42.8674L166.751 24.8439L163.831 25.5312ZM168.073 43.5547V46.5547H168.261V43.5547V40.5547H168.073V43.5547ZM168.261 43.5547L171.204 44.1362L174.673 26.5815L171.73 26L168.787 25.4185L165.318 42.9731L168.261 43.5547ZM171.73 26L174.673 26.5794C174.894 25.4584 175.221 25.0293 175.383 24.8785C175.493 24.7761 175.739 24.5938 176.464 24.5938V21.5938V18.5938C174.587 18.5938 172.759 19.1263 171.299 20.4829C169.891 21.791 169.151 23.565 168.786 25.4206L171.73 26ZM176.464 21.5938V24.5938C177.516 24.5938 177.937 24.8668 178.064 24.9815C178.147 25.0565 178.363 25.2836 178.363 26.0234H181.363H184.363C184.363 23.9508 183.675 21.963 182.083 20.5263C180.534 19.1292 178.506 18.5938 176.464 18.5938V21.5938ZM181.363 26.0234H178.363C178.363 26.54 178.213 27.6453 177.906 28.7731L180.8 29.5625L183.694 30.3519C184.09 28.9016 184.363 27.2413 184.363 26.0234H181.363ZM180.8 29.5625L177.903 28.7839L172.02 50.6745L174.917 51.4531L177.814 52.2317L183.697 30.3411L180.8 29.5625ZM174.917 51.4531L172.024 50.659C171.609 52.1727 171.144 52.8256 170.814 53.1178C170.555 53.3464 170.125 53.5859 169.105 53.5859V56.5859V59.5859C171.179 59.5859 173.162 59.052 174.79 57.6107C176.347 56.233 177.241 54.3195 177.81 52.2473L174.917 51.4531ZM169.105 56.5859V53.5859C167.954 53.5859 167.482 53.327 167.22 53.1001C166.897 52.8203 166.435 52.1849 166.03 50.6437L163.128 51.4062L160.227 52.1688C160.783 54.2839 161.68 56.2383 163.29 57.6343C164.962 59.0832 166.998 59.5859 169.105 59.5859V56.5859ZM163.128 51.4062L166.031 50.6505L162.188 35.8849L159.284 36.6406L156.381 37.3964L160.225 52.162L163.128 51.4062ZM159.284 36.6406V33.6406H159.097V36.6406V39.6406H159.284V36.6406ZM159.097 36.6406L156.194 35.8849L152.35 50.6505L155.253 51.4062L158.156 52.162L162 37.3964L159.097 36.6406ZM155.253 51.4062L152.347 50.6607C151.975 52.1111 151.509 52.7684 151.158 53.0756C150.862 53.3351 150.378 53.5859 149.347 53.5859V56.5859V59.5859C151.457 59.5859 153.469 59.0282 155.112 57.5885C156.701 56.1965 157.617 54.2639 158.159 52.1518L155.253 51.4062ZM195.467 56.5859V53.5859C194.481 53.5859 194.107 53.3079 193.964 53.1583C193.802 52.9895 193.498 52.524 193.498 51.3828H190.498H187.498C187.498 53.5698 188.097 55.7058 189.629 57.3066C191.179 58.9265 193.29 59.5859 195.467 59.5859V56.5859ZM190.498 51.3828H193.498V26.7969H190.498H187.498V51.3828H190.498ZM190.498 26.7969H193.498C193.498 25.6557 193.802 25.1902 193.964 25.0214C194.107 24.8718 194.481 24.5938 195.467 24.5938V21.5938V18.5938C193.29 18.5938 191.179 19.2532 189.629 20.8731C188.097 22.4739 187.498 24.6099 187.498 26.7969H190.498ZM195.467 21.5938V24.5938C196.454 24.5938 196.827 24.8718 196.971 25.0214C197.132 25.1902 197.436 25.6557 197.436 26.7969H200.436H203.436C203.436 24.6099 202.837 22.4739 201.306 20.8731C199.755 19.2532 197.645 18.5938 195.467 18.5938V21.5938ZM200.436 26.7969H197.436V51.3828H200.436H203.436V26.7969H200.436ZM200.436 51.3828H197.436C197.436 52.524 197.132 52.9895 196.971 53.1583C196.827 53.3079 196.454 53.5859 195.467 53.5859V56.5859V59.5859C197.645 59.5859 199.755 58.9265 201.306 57.3066C202.837 55.7058 203.436 53.5698 203.436 51.3828H200.436ZM219.228 24.3125L221.635 22.5213L221.63 22.5145L221.625 22.5078L219.228 24.3125ZM230.689 39.7109L228.282 41.5021L229.182 42.7109H230.689V39.7109ZM230.877 39.7109V42.7109H233.877V39.7109H230.877ZM231.041 53.8672L233.462 52.0956L233.456 52.0875L231.041 53.8672ZM219.486 38.1875L221.901 36.4078L221.002 35.1875H219.486V38.1875ZM219.298 38.1875V35.1875H216.298V38.1875H219.298ZM214.611 56.5859V53.5859C213.704 53.5859 213.404 53.3348 213.314 53.2413C213.207 53.1306 212.923 52.7419 212.923 51.6641H209.923H206.923C206.923 53.7737 207.495 55.846 208.988 57.3993C210.498 58.9699 212.541 59.5859 214.611 59.5859V56.5859ZM209.923 51.6641H212.923V26.1875H209.923H206.923V51.6641H209.923ZM209.923 26.1875H212.923C212.923 25.2192 213.179 24.9524 213.222 24.9106C213.276 24.858 213.584 24.5938 214.611 24.5938V21.5938V18.5938C212.591 18.5938 210.555 19.1264 209.027 20.6206C207.488 22.1258 206.923 24.1558 206.923 26.1875H209.923ZM214.611 21.5938V24.5938C215.018 24.5938 215.282 24.6751 215.536 24.8252C215.835 25.0016 216.26 25.3588 216.832 26.1172L219.228 24.3125L221.625 22.5078C220.766 21.3678 219.785 20.3656 218.584 19.6572C217.339 18.9226 216.009 18.5938 214.611 18.5938V21.5938ZM219.228 24.3125L216.822 26.1037L228.282 41.5021L230.689 39.7109L233.096 37.9197L221.635 22.5213L219.228 24.3125ZM230.689 39.7109V42.7109H230.877V39.7109V36.7109H230.689V39.7109ZM230.877 39.7109H233.877V26.5156H230.877H227.877V39.7109H230.877ZM230.877 26.5156H233.877C233.877 25.4483 234.161 25.0576 234.272 24.9423C234.369 24.8419 234.675 24.5938 235.564 24.5938V21.5938V18.5938C233.5 18.5938 231.462 19.2128 229.954 20.7764C228.46 22.3252 227.877 24.3955 227.877 26.5156H230.877ZM235.564 21.5938V24.5938C236.471 24.5938 236.771 24.8449 236.861 24.9384C236.968 25.0491 237.252 25.4378 237.252 26.5156H240.252H243.252C243.252 24.406 242.68 22.3337 241.187 20.7804C239.677 19.2098 237.634 18.5938 235.564 18.5938V21.5938ZM240.252 26.5156H237.252V51.9922H240.252H243.252V26.5156H240.252ZM240.252 51.9922H237.252C237.252 52.9549 236.997 53.2389 236.949 53.288C236.901 53.3353 236.626 53.5859 235.681 53.5859V56.5859V59.5859C237.69 59.5859 239.699 59.028 241.199 57.5226C242.697 56.0189 243.252 54.0061 243.252 51.9922H240.252ZM235.681 56.5859V53.5859C235.189 53.5859 234.921 53.4928 234.697 53.3615C234.427 53.2023 234.026 52.8672 233.462 52.0957L231.041 53.8672L228.62 55.6387C229.461 56.7891 230.432 57.8133 231.655 58.5331C232.926 59.2807 234.275 59.5859 235.681 59.5859V56.5859ZM231.041 53.8672L233.456 52.0875L221.901 36.4078L219.486 38.1875L217.071 39.9672L228.626 55.6469L231.041 53.8672ZM219.486 38.1875V35.1875H219.298V38.1875V41.1875H219.486V38.1875ZM219.298 38.1875H216.298V51.6641H219.298H222.298V38.1875H219.298ZM219.298 51.6641H216.298C216.298 52.7314 216.014 53.1221 215.903 53.2373C215.806 53.3378 215.5 53.5859 214.611 53.5859V56.5859V59.5859C216.675 59.5859 218.713 58.9669 220.221 57.4033C221.715 55.8545 222.298 53.7842 222.298 51.6641H219.298ZM251.966 40.9062L254.964 40.8063L254.964 40.7938L251.966 40.9062ZM251.473 27.7812L254.471 27.6688L254.471 27.6537L254.47 27.6386L251.473 27.7812ZM260.895 27.7812L257.899 27.6386L257.898 27.6537L257.897 27.6688L260.895 27.7812ZM260.403 40.9062L257.405 40.7938L257.405 40.8063L260.403 40.9062ZM256.184 45.3125V42.3125C255.776 42.3125 255.539 42.2533 255.421 42.2091C255.317 42.17 255.284 42.1366 255.27 42.1214C255.24 42.0887 254.997 41.7948 254.964 40.8063L251.966 40.9062L248.967 41.0062C249.028 42.8302 249.512 44.7394 250.876 46.2067C252.29 47.7277 254.216 48.3125 256.184 48.3125V45.3125ZM251.966 40.9062L254.964 40.7938L254.471 27.6688L251.473 27.7812L248.476 27.8937L248.968 41.0187L251.966 40.9062ZM251.473 27.7812L254.47 27.6386C254.446 27.1344 254.427 26.6667 254.427 26.3516H251.427H248.427C248.427 26.8333 248.454 27.4437 248.477 27.9239L251.473 27.7812ZM251.427 26.3516H254.427C254.427 25.418 254.687 25.0773 254.797 24.9678C254.911 24.8551 255.263 24.5938 256.208 24.5938V21.5938V18.5938C254.13 18.5938 252.091 19.1996 250.57 20.7099C249.045 22.2235 248.427 24.2617 248.427 26.3516H251.427ZM256.208 21.5938V24.5938C257.152 24.5938 257.482 24.8539 257.58 24.9525C257.681 25.0544 257.942 25.3961 257.942 26.3516H260.942H263.942C263.942 24.2836 263.348 22.2464 261.838 20.7252C260.324 19.2008 258.287 18.5938 256.208 18.5938V21.5938ZM260.942 26.3516H257.942C257.942 26.6667 257.923 27.1344 257.899 27.6386L260.895 27.7812L263.892 27.9239C263.915 27.4437 263.942 26.8333 263.942 26.3516H260.942ZM260.895 27.7812L257.897 27.6688L257.405 40.7938L260.403 40.9062L263.401 41.0187L263.893 27.8937L260.895 27.7812ZM260.403 40.9062L257.405 40.8063C257.372 41.7828 257.129 42.0793 257.094 42.1168C257.077 42.1354 257.041 42.1704 256.936 42.2098C256.817 42.2541 256.584 42.3125 256.184 42.3125V45.3125V48.3125C258.148 48.3125 260.067 47.7242 261.48 46.2113C262.845 44.7488 263.34 42.8422 263.401 41.0062L260.403 40.9062ZM256.184 56.9375V53.9375C254.883 53.9375 254.192 53.0316 254.192 52.25H251.192H248.192C248.192 56.7184 251.955 59.9375 256.184 59.9375V56.9375ZM251.192 52.25H254.192C254.192 51.5013 254.873 50.5859 256.184 50.5859V47.5859V44.5859C251.965 44.5859 248.192 47.7956 248.192 52.25H251.192ZM256.184 47.5859V50.5859C257.449 50.5859 258.153 51.5013 258.153 52.25H261.153H264.153C264.153 47.7956 260.357 44.5859 256.184 44.5859V47.5859ZM261.153 52.25H258.153C258.153 53.0316 257.439 53.9375 256.184 53.9375V56.9375V59.9375C260.367 59.9375 264.153 56.7184 264.153 52.25H261.153Z" fill="#F5C305" mask="url(#path-3-outside-2_903_1680)"/>
<defs>
<linearGradient id="paint0_linear_903_1680" x1="0" y1="39.5" x2="400" y2="39.5" gradientUnits="userSpaceOnUse">
<stop stop-color="#F5C305" stop-opacity="0"/>
<stop offset="0.3" stop-color="#F5C305" stop-opacity="0.7"/>
<stop offset="0.7" stop-color="#F5C305" stop-opacity="0.7"/>
<stop offset="1" stop-color="#F5C305" stop-opacity="0"/>
</linearGradient>
<linearGradient id="paint1_linear_903_1680" x1="0" y1="39.5" x2="400" y2="39.5" gradientUnits="userSpaceOnUse">
<stop stop-color="#FFE67D" stop-opacity="0"/>
<stop offset="0.5" stop-color="#FFE67D"/>
<stop offset="1" stop-color="#FFE67D" stop-opacity="0"/>
</linearGradient>
<linearGradient id="paint2_linear_903_1680" x1="200" y1="15" x2="200" y2="63" gradientUnits="userSpaceOnUse">
<stop offset="0.302885" stop-color="#FCFFFB"/>
<stop offset="0.802885" stop-color="#FFE24C"/>
</linearGradient>
</defs>
</svg>
