<svg width="72" height="103" viewBox="0 0 72 103" fill="none" xmlns="http://www.w3.org/2000/svg">
<path d="M34.9268 1.4624C39.7037 1.46256 43.5711 5.34393 43.5713 10.1255C43.5713 14.9072 39.7038 18.7894 34.9268 18.7896C30.1496 18.7896 26.2822 14.9073 26.2822 10.1255C26.2824 5.34383 30.1497 1.4624 34.9268 1.4624Z" fill="#58A3AA" stroke="#FFF9E6" stroke-width="2.45161"/>
<path d="M59.0869 16.1333C64.4707 16.1333 68.8301 20.508 68.8301 25.8979C68.83 31.2879 64.4707 35.6626 59.0869 35.6626C53.7033 35.6624 49.3448 31.2877 49.3447 25.8979C49.3447 20.5081 53.7033 16.1335 59.0869 16.1333Z" fill="#58A3AA" stroke="#FFF9E6" stroke-width="2.45161"/>
<path d="M46.1738 48.9764C46.1738 41.8448 51.9551 36.0635 59.0867 36.0635V36.0635C66.2183 36.0635 71.9996 41.8448 71.9996 48.9764V56.2317C71.9996 59.0164 69.7422 61.2738 66.9576 61.2738H51.2159C48.4312 61.2738 46.1738 59.0164 46.1738 56.2317V48.9764Z" fill="#58A3AA"/>
<path d="M12.9131 16.1333C18.2969 16.1333 22.6562 20.508 22.6562 25.8979C22.6562 31.2879 18.2968 35.6626 12.9131 35.6626C7.52952 35.6624 3.17094 31.2877 3.1709 25.8979C3.1709 20.5081 7.52949 16.1335 12.9131 16.1333Z" fill="#58A3AA" stroke="#FFF9E6" stroke-width="2.45161"/>
<path d="M0.000976562 48.9764C0.000976562 41.8448 5.78229 36.0635 12.9139 36.0635V36.0635C20.0455 36.0635 25.8268 41.8448 25.8268 48.9764V56.2317C25.8268 59.0164 23.5694 61.2738 20.7847 61.2738H5.04304C2.25839 61.2738 0.000976562 59.0164 0.000976562 56.2317V48.9764Z" fill="#58A3AA"/>
<path d="M34.9258 19.3242C40.9162 19.3242 45.7676 24.1923 45.7676 30.1904C45.7673 36.1884 40.916 41.0557 34.9258 41.0557C28.9356 41.0556 24.0852 36.1883 24.085 30.1904C24.085 24.1923 28.9355 19.3243 34.9258 19.3242Z" fill="#58A3AA" stroke="#FFF9E6" stroke-width="2.45161"/>
<path d="M34.9258 41.625C43.6541 41.625 50.7295 48.7004 50.7295 57.4287V65.6201C50.7293 69.4407 47.6322 72.5381 43.8115 72.5381H26.04C22.2194 72.5381 19.1222 69.4407 19.1221 65.6201V57.4287C19.1221 48.7005 26.1975 41.625 34.9258 41.625Z" fill="#58A3AA" stroke="#FFF9E6" stroke-width="2.45161"/>
<path d="M30.7605 89.492C30.7205 90.1987 30.6805 90.9187 30.6405 91.652C31.1072 91.6387 31.5405 91.632 31.9405 91.632C32.3539 91.6187 32.6739 91.612 32.9005 91.612C33.3939 91.612 33.6405 91.9853 33.6405 92.732C33.6405 93.172 33.5739 93.492 33.4405 93.692C33.3072 93.892 33.1205 94.012 32.8805 94.052C32.5739 94.092 32.2072 94.132 31.7805 94.172C31.3672 94.212 30.9339 94.252 30.4805 94.292C30.4405 94.8387 30.4005 95.352 30.3605 95.832C30.3339 96.2987 30.3072 96.7053 30.2805 97.052C30.2405 97.5187 30.1139 97.8653 29.9005 98.092C29.6872 98.3187 29.3272 98.432 28.8205 98.432C28.2739 98.432 27.9072 98.2987 27.7205 98.032C27.5472 97.7787 27.4539 97.4387 27.4405 97.012C27.4272 96.6387 27.4139 96.2453 27.4005 95.832C27.4005 95.4187 27.4005 94.9853 27.4005 94.532C26.9605 94.5587 26.5272 94.5853 26.1005 94.612C25.6739 94.6253 25.2739 94.6453 24.9005 94.672C24.5405 94.6853 24.2139 94.6987 23.9205 94.712C23.6405 94.712 23.4139 94.712 23.2405 94.712C22.6005 94.712 22.0872 94.532 21.7005 94.172C21.3139 93.812 21.1272 93.312 21.1405 92.672C21.1405 92.2187 21.1539 91.6653 21.1805 91.012C21.2205 90.3453 21.2605 89.652 21.3005 88.932C21.3539 88.212 21.4072 87.492 21.4605 86.772C21.5139 86.052 21.5672 85.4053 21.6205 84.832C21.6339 84.672 21.6605 84.5187 21.7005 84.372C21.7539 84.2253 21.8405 84.0987 21.9605 83.992C22.0939 83.872 22.2672 83.7787 22.4805 83.712C22.7072 83.6453 23.0005 83.612 23.3605 83.612C23.7072 83.612 23.9805 83.6453 24.1805 83.712C24.3939 83.7653 24.5539 83.8453 24.6605 83.952C24.7672 84.0587 24.8339 84.192 24.8605 84.352C24.8872 84.4987 24.8939 84.6653 24.8805 84.852C24.8805 84.9053 24.8672 85.092 24.8405 85.412C24.8272 85.7187 24.8005 86.0987 24.7605 86.552C24.7339 87.0053 24.7005 87.4987 24.6605 88.032C24.6339 88.552 24.6072 89.0453 24.5805 89.512C24.5539 89.9787 24.5272 90.3787 24.5005 90.712C24.4872 91.0453 24.4805 91.2453 24.4805 91.312C24.4805 91.5387 24.5139 91.6853 24.5805 91.752C24.6605 91.8053 24.8139 91.8253 25.0405 91.812C25.2672 91.7853 25.6072 91.772 26.0605 91.772C26.5139 91.7587 26.9739 91.7453 27.4405 91.732C27.4672 90.5187 27.5005 89.3187 27.5405 88.132C27.5805 86.932 27.6405 85.7653 27.7205 84.632C27.7339 84.4587 27.7539 84.2987 27.7805 84.152C27.8205 84.0053 27.8939 83.8853 28.0005 83.792C28.1205 83.6853 28.2872 83.612 28.5005 83.572C28.7272 83.5187 29.0272 83.4987 29.4005 83.512C29.7472 83.5387 30.0205 83.592 30.2205 83.672C30.4339 83.7387 30.5939 83.832 30.7005 83.952C30.8205 84.072 30.8939 84.212 30.9205 84.372C30.9605 84.5187 30.9805 84.6853 30.9805 84.872C30.9805 85.112 30.9672 85.4653 30.9405 85.932C30.9272 86.3853 30.9072 86.9187 30.8805 87.532C30.8539 88.132 30.8139 88.7853 30.7605 89.492ZM45.1618 90.192C44.9085 90.8053 44.5418 91.3453 44.0618 91.812C43.5818 92.2653 43.0018 92.6253 42.3218 92.892C41.6551 93.1453 40.9085 93.272 40.0818 93.272C39.1618 93.272 38.3618 93.152 37.6818 92.912C37.0018 92.6587 36.4351 92.312 35.9818 91.872C35.5285 91.4187 35.1885 90.8787 34.9618 90.252C34.7485 89.6253 34.6418 88.9387 34.6418 88.192C34.6418 87.472 34.7685 86.792 35.0218 86.152C35.2885 85.512 35.6685 84.952 36.1618 84.472C36.6551 83.992 37.2618 83.612 37.9818 83.332C38.7151 83.052 39.5418 82.912 40.4618 82.912C41.3151 82.912 42.0618 83.0587 42.7018 83.352C43.3418 83.632 43.8751 84.012 44.3018 84.492C44.7285 84.972 45.0418 85.532 45.2418 86.172C45.4551 86.812 45.5618 87.4787 45.5618 88.172C45.5618 88.892 45.4285 89.5653 45.1618 90.192ZM40.0218 90.552C40.7418 90.552 41.3151 90.332 41.7418 89.892C42.1685 89.452 42.3818 88.852 42.3818 88.092C42.3818 87.332 42.1818 86.732 41.7818 86.292C41.3818 85.852 40.8618 85.632 40.2218 85.632C39.4618 85.632 38.8685 85.8653 38.4418 86.332C38.0285 86.7987 37.8218 87.412 37.8218 88.172C37.8218 88.9187 38.0285 89.5053 38.4418 89.932C38.8551 90.3453 39.3818 90.552 40.0218 90.552ZM49.8818 93.992C49.7618 94.152 49.5685 94.2853 49.3018 94.392C49.2218 94.4187 49.1085 94.4453 48.9618 94.472C48.8151 94.4853 48.6551 94.4987 48.4818 94.512C48.3085 94.512 48.1418 94.5053 47.9818 94.492C47.8218 94.4653 47.6951 94.432 47.6018 94.392C47.4285 94.312 47.2751 94.192 47.1418 94.032C47.0218 93.8587 46.9618 93.6387 46.9618 93.372C46.9485 92.812 46.9351 92.132 46.9218 91.332C46.9218 90.532 46.9151 89.7053 46.9018 88.852C46.8885 87.9853 46.8818 87.132 46.8818 86.292C46.8818 85.4387 46.8885 84.6787 46.9018 84.012C46.9018 83.5053 47.1085 83.172 47.5218 83.012C47.8418 82.892 48.2085 82.8387 48.6218 82.852C49.0351 82.852 49.3951 82.912 49.7018 83.032C49.9151 83.112 50.0551 83.2253 50.1218 83.372C50.2018 83.5187 50.2418 83.7253 50.2418 83.992C50.2551 84.6187 50.2618 85.3587 50.2618 86.212C50.2618 87.052 50.2551 87.912 50.2418 88.792C50.2418 89.6587 50.2285 90.492 50.2018 91.292C50.1885 92.092 50.1618 92.7587 50.1218 93.292C50.0951 93.5853 50.0151 93.8187 49.8818 93.992ZM50.1018 99.772C49.9685 99.9853 49.7951 100.105 49.5818 100.132C49.1018 100.185 48.4751 100.232 47.7018 100.272C46.9418 100.312 46.1218 100.345 45.2418 100.372C44.3751 100.412 43.4951 100.445 42.6018 100.472C41.7218 100.499 40.9351 100.519 40.2418 100.532C39.3085 100.559 38.7885 100.105 38.6818 99.172C38.6285 98.7053 38.5751 98.1587 38.5218 97.532C38.4818 96.9187 38.4618 96.272 38.4618 95.592C38.4618 94.952 38.6818 94.572 39.1218 94.452C39.4151 94.372 39.7618 94.3253 40.1618 94.312C40.5618 94.2853 40.8818 94.2853 41.1218 94.312C41.4685 94.3387 41.6951 94.432 41.8018 94.592C41.9218 94.7387 41.9885 94.9853 42.0018 95.332C42.0018 95.5453 42.0018 95.7387 42.0018 95.912C42.0151 96.072 42.0218 96.232 42.0218 96.392C42.0351 96.552 42.0418 96.7187 42.0418 96.892C42.0551 97.0653 42.0618 97.2653 42.0618 97.492C42.0618 97.732 42.1618 97.852 42.3618 97.852C42.7751 97.852 43.2951 97.8453 43.9218 97.832C44.5618 97.832 45.2218 97.8253 45.9018 97.812C46.5951 97.7987 47.2551 97.7853 47.8818 97.772C48.5218 97.7587 49.0485 97.752 49.4618 97.752C49.9551 97.752 50.2218 98.0987 50.2618 98.792C50.2885 99.2453 50.2351 99.572 50.1018 99.772Z" fill="#3D8691"/>
</svg>
