<svg width="26" height="29" viewBox="0 0 26 29" fill="none" xmlns="http://www.w3.org/2000/svg">
<path d="M25.2949 14.5391C25.2949 16.0547 25.041 17.4883 24.5332 18.8398C24.0254 20.1836 23.3145 21.3984 22.4004 22.4844C21.4863 23.5703 20.4121 24.4766 19.1777 25.2031C17.9512 25.9297 16.6191 26.4258 15.1816 26.6914V27.9688C15.1816 28.2812 15.1074 28.5117 14.959 28.6602C14.8105 28.8164 14.623 28.8906 14.3965 28.8828C14.1699 28.8828 13.9434 28.7969 13.7168 28.625L9.83789 25.7422C9.58789 25.5547 9.46289 25.3242 9.46289 25.0508C9.4707 24.7852 9.5957 24.5586 9.83789 24.3711L13.7285 21.4883C13.9473 21.3242 14.1699 21.2383 14.3965 21.2305C14.623 21.2227 14.8105 21.2969 14.959 21.4531C15.1074 21.6094 15.1816 21.8398 15.1816 22.1445V23.5273C16.1895 23.2773 17.1191 22.875 17.9707 22.3203C18.8301 21.7578 19.5762 21.082 20.209 20.293C20.8418 19.4961 21.334 18.6094 21.6855 17.6328C22.0371 16.6562 22.2129 15.625 22.2129 14.5391C22.2129 13.3828 22.0059 12.293 21.5918 11.2695C21.1777 10.2461 20.6113 9.33984 19.8926 8.55078C19.5645 8.10547 19.4316 7.69141 19.4941 7.30859C19.5566 6.91797 19.7207 6.60156 19.9863 6.35938C20.291 6.10156 20.6621 5.97266 21.0996 5.97266C21.5449 5.97266 21.9277 6.18359 22.248 6.60547C23.1934 7.64453 23.9355 8.84375 24.4746 10.2031C25.0215 11.5625 25.2949 13.0078 25.2949 14.5391ZM0.533203 14.5391C0.533203 13.0234 0.787109 11.5898 1.29492 10.2383C1.80273 8.88672 2.51367 7.66797 3.42773 6.58203C4.34961 5.49609 5.42383 4.58984 6.65039 3.86328C7.87695 3.13672 9.20898 2.64063 10.6465 2.375V1.09766C10.6465 0.785156 10.7207 0.554688 10.8691 0.40625C11.0176 0.25 11.2051 0.175781 11.4316 0.183594C11.6582 0.183594 11.8809 0.269531 12.0996 0.441406L15.9902 3.33594C16.2402 3.52344 16.3652 3.75 16.3652 4.01562C16.3652 4.28125 16.2402 4.50781 15.9902 4.69531L12.0996 7.58984C11.8809 7.75391 11.6582 7.83984 11.4316 7.84766C11.2051 7.84766 11.0176 7.77344 10.8691 7.625C10.7207 7.46875 10.6465 7.23828 10.6465 6.93359V5.55078C9.63867 5.79297 8.70508 6.19531 7.8457 6.75781C6.99414 7.3125 6.25195 7.98828 5.61914 8.78516C4.98633 9.58203 4.49414 10.4688 4.14258 11.4453C3.79102 12.4141 3.61523 13.4453 3.61523 14.5391C3.61523 15.6875 3.82227 16.7773 4.23633 17.8086C4.65039 18.832 5.2168 19.7344 5.93555 20.5156C6.26367 20.9609 6.39258 21.3789 6.32227 21.7695C6.25977 22.1523 6.09961 22.4609 5.8418 22.6953C5.53711 22.9609 5.16211 23.0938 4.7168 23.0938C4.2793 23.0938 3.89648 22.8867 3.56836 22.4727C2.63086 21.4258 1.88867 20.2227 1.3418 18.8633C0.802734 17.5039 0.533203 16.0625 0.533203 14.5391Z" fill="#19505A"/>
</svg>
