<svg width="68" height="75" viewBox="0 0 68 75" fill="none" xmlns="http://www.w3.org/2000/svg">
<g filter="url(#filter0_d_405_215)">
<path d="M2 0H66V58C66 66.2843 59.2843 73 51 73H17C8.71573 73 2 66.2843 2 58V0Z" fill="#3D8691" fill-opacity="0.4" shape-rendering="crispEdges"/>
<g filter="url(#filter1_d_405_215)">
<path d="M34 57.3867C31.2786 57.3867 28.7266 56.8789 26.3438 55.8633C23.9609 54.8477 21.8646 53.4284 20.0547 51.6055C18.2448 49.7956 16.8255 47.7057 15.7969 45.3359C14.7812 42.9531 14.2734 40.401 14.2734 37.6797C14.2734 34.9583 14.7812 32.4062 15.7969 30.0234C16.8255 27.6406 18.2448 25.5443 20.0547 23.7344C21.8646 21.9245 23.9609 20.5117 26.3438 19.4961C28.7266 18.4805 31.2786 17.9727 34 17.9727C36.7214 17.9727 39.2669 18.4805 41.6367 19.4961C44.0195 20.5117 46.1159 21.9245 47.9258 23.7344C49.7357 25.5443 51.1484 27.6406 52.1641 30.0234C53.1927 32.4062 53.707 34.9583 53.707 37.6797C53.707 40.401 53.1927 42.9531 52.1641 45.3359C51.1484 47.7057 49.7357 49.7956 47.9258 51.6055C46.1159 53.4284 44.0195 54.8477 41.6367 55.8633C39.2669 56.8789 36.7214 57.3867 34 57.3867ZM26.0703 47.1914H41.9102C42.444 47.1914 42.8411 47.0286 43.1016 46.7031C43.362 46.3646 43.4922 45.9674 43.4922 45.5117C43.4922 45.0039 43.3034 44.3464 42.9258 43.5391C42.5612 42.7318 41.9948 41.931 41.2266 41.1367C40.4583 40.3294 39.4753 39.6523 38.2773 39.1055C37.0794 38.5456 35.6536 38.2656 34 38.2656C32.3333 38.2656 30.901 38.5456 29.7031 39.1055C28.5052 39.6523 27.5221 40.3294 26.7539 41.1367C25.9857 41.931 25.4128 42.7318 25.0352 43.5391C24.6706 44.3464 24.4883 45.0039 24.4883 45.5117C24.4883 45.9674 24.6185 46.3646 24.8789 46.7031C25.1393 47.0286 25.5365 47.1914 26.0703 47.1914ZM34 36.8789C34.8854 36.8919 35.6927 36.6706 36.4219 36.2148C37.151 35.7461 37.7305 35.1146 38.1602 34.3203C38.5898 33.526 38.8047 32.6276 38.8047 31.625C38.8047 30.6875 38.5898 29.8281 38.1602 29.0469C37.7305 28.2656 37.151 27.6471 36.4219 27.1914C35.6927 26.7227 34.8854 26.4883 34 26.4883C33.1016 26.4883 32.2878 26.7227 31.5586 27.1914C30.8294 27.6471 30.25 28.2656 29.8203 29.0469C29.3906 29.8281 29.1758 30.6875 29.1758 31.625C29.1758 32.6276 29.3906 33.526 29.8203 34.3203C30.25 35.1146 30.8294 35.7396 31.5586 36.1953C32.2878 36.651 33.1016 36.8789 34 36.8789Z" fill="white"/>
</g>
</g>
<defs>
<filter id="filter0_d_405_215" x="0" y="-2" width="68" height="77" filterUnits="userSpaceOnUse" color-interpolation-filters="sRGB">
<feFlood flood-opacity="0" result="BackgroundImageFix"/>
<feColorMatrix in="SourceAlpha" type="matrix" values="0 0 0 0 0 0 0 0 0 0 0 0 0 0 0 0 0 0 127 0" result="hardAlpha"/>
<feOffset/>
<feGaussianBlur stdDeviation="1"/>
<feComposite in2="hardAlpha" operator="out"/>
<feColorMatrix type="matrix" values="0 0 0 0 0 0 0 0 0 0 0 0 0 0 0 0 0 0 0.25 0"/>
<feBlend mode="normal" in2="BackgroundImageFix" result="effect1_dropShadow_405_215"/>
<feBlend mode="normal" in="SourceGraphic" in2="effect1_dropShadow_405_215" result="shape"/>
</filter>
<filter id="filter1_d_405_215" x="10.2734" y="13.9727" width="47.4336" height="47.4141" filterUnits="userSpaceOnUse" color-interpolation-filters="sRGB">
<feFlood flood-opacity="0" result="BackgroundImageFix"/>
<feColorMatrix in="SourceAlpha" type="matrix" values="0 0 0 0 0 0 0 0 0 0 0 0 0 0 0 0 0 0 127 0" result="hardAlpha"/>
<feOffset/>
<feGaussianBlur stdDeviation="2"/>
<feComposite in2="hardAlpha" operator="out"/>
<feColorMatrix type="matrix" values="0 0 0 0 0 0 0 0 0 0 0 0 0 0 0 0 0 0 0.25 0"/>
<feBlend mode="normal" in2="BackgroundImageFix" result="effect1_dropShadow_405_215"/>
<feBlend mode="normal" in="SourceGraphic" in2="effect1_dropShadow_405_215" result="shape"/>
</filter>
</defs>
</svg>
