<svg width="400" height="79" viewBox="0 0 400 79" fill="none" xmlns="http://www.w3.org/2000/svg">
<mask id="path-1-inside-1_903_1679" fill="white">
<path d="M0 0H400V79H0V0Z"/>
</mask>
<path d="M0 0H400V79H0V0Z" fill="url(#paint0_linear_903_1679)"/>
<path d="M0 0V2H400V0V-2H0V0ZM400 79V77H0V79V81H400V79Z" fill="url(#paint1_linear_903_1679)" mask="url(#path-1-inside-1_903_1679)"/>
<mask id="path-3-outside-2_903_1679" maskUnits="userSpaceOnUse" x="120" y="19" width="159" height="40" fill="black">
<rect fill="white" x="120" y="19" width="159" height="40"/>
<path d="M127.4 56C124.236 56 122.431 54.125 122.431 50.7969V26.7969C122.431 23.4688 124.236 21.5938 127.4 21.5938C130.564 21.5938 132.369 23.4688 132.369 26.7969V48.0781H141.72C144.345 48.0781 146.103 49.5078 146.103 52.0391C146.103 54.5703 144.392 56 141.72 56H127.4ZM168.997 56.5859C158.52 56.5859 151.958 49.9062 151.958 39.1016C151.958 28.2969 158.544 21.5938 168.997 21.5938C179.45 21.5938 186.036 28.2969 186.036 39.1016C186.036 49.9062 179.45 56.5859 168.997 56.5859ZM168.997 48.6641C173.169 48.6641 175.911 44.9375 175.911 39.1016C175.911 33.2422 173.145 29.5156 168.997 29.5156C164.848 29.5156 162.083 33.2422 162.083 39.1016C162.083 44.9375 164.825 48.6641 168.997 48.6641ZM208.344 56.5859C200.727 56.5859 196.32 53.8438 194.867 50.5391C194.516 49.7656 194.352 48.9688 194.352 48.1953C194.352 45.8047 196.156 44.1641 198.617 44.1641C200.492 44.1641 201.758 44.75 203.094 46.625C204.266 48.2891 206.234 48.9688 208.461 48.9688C211.438 48.9688 213.266 47.75 213.266 46.0859C213.266 44.4922 211.953 43.8125 208.156 43.1328L204.758 42.5234C198.031 41.3281 194.352 37.9297 194.352 32.6797C194.352 25.8828 200.211 21.5938 208.25 21.5938C214.953 21.5938 219.758 23.9609 221.516 28.1797C221.797 28.8594 221.938 29.4922 221.938 30.2656C221.938 32.5156 220.297 34.0391 217.812 34.0625C215.703 34.0625 214.367 33.3359 213.172 31.5312C212.07 29.8438 210.5 29.2109 208.367 29.2109C205.602 29.2109 204.195 30.4297 204.195 31.9531C204.195 33.4766 205.648 34.2031 209.023 34.8125L212.422 35.4219C219.688 36.7344 223.109 39.7109 223.109 45.1953C223.109 52.1562 217.672 56.5859 208.344 56.5859ZM236.581 56C233.417 56 231.613 54.125 231.613 50.7969V27.3828C231.613 24.0547 233.417 22.1797 236.581 22.1797H251.558C254.23 22.1797 255.941 23.6094 255.941 26.1406C255.941 28.6719 254.183 30.1016 251.558 30.1016H241.55V35.5391H251.159C253.527 35.5391 255.073 36.8281 255.073 39.1016C255.073 41.375 253.573 42.6641 251.159 42.6641H241.55V48.0781H251.558C254.183 48.0781 255.941 49.5078 255.941 52.0391C255.941 54.5703 254.23 56 251.558 56H236.581ZM271.123 45.3125C268.358 45.3125 266.998 43.7188 266.905 40.9062L266.413 27.7812C266.389 27.2891 266.366 26.75 266.366 26.3516C266.366 23.3281 268.123 21.5938 271.147 21.5938C274.17 21.5938 275.881 23.3281 275.881 26.3516C275.881 26.75 275.858 27.2891 275.834 27.7812L275.342 40.9062C275.248 43.7188 273.866 45.3125 271.123 45.3125ZM271.123 56.9375C268.358 56.9375 266.131 54.875 266.131 52.25C266.131 49.6484 268.358 47.5859 271.123 47.5859C273.842 47.5859 276.092 49.6484 276.092 52.25C276.092 54.875 273.842 56.9375 271.123 56.9375Z"/>
</mask>
<path d="M127.4 56C124.236 56 122.431 54.125 122.431 50.7969V26.7969C122.431 23.4688 124.236 21.5938 127.4 21.5938C130.564 21.5938 132.369 23.4688 132.369 26.7969V48.0781H141.72C144.345 48.0781 146.103 49.5078 146.103 52.0391C146.103 54.5703 144.392 56 141.72 56H127.4ZM168.997 56.5859C158.52 56.5859 151.958 49.9062 151.958 39.1016C151.958 28.2969 158.544 21.5938 168.997 21.5938C179.45 21.5938 186.036 28.2969 186.036 39.1016C186.036 49.9062 179.45 56.5859 168.997 56.5859ZM168.997 48.6641C173.169 48.6641 175.911 44.9375 175.911 39.1016C175.911 33.2422 173.145 29.5156 168.997 29.5156C164.848 29.5156 162.083 33.2422 162.083 39.1016C162.083 44.9375 164.825 48.6641 168.997 48.6641ZM208.344 56.5859C200.727 56.5859 196.32 53.8438 194.867 50.5391C194.516 49.7656 194.352 48.9688 194.352 48.1953C194.352 45.8047 196.156 44.1641 198.617 44.1641C200.492 44.1641 201.758 44.75 203.094 46.625C204.266 48.2891 206.234 48.9688 208.461 48.9688C211.438 48.9688 213.266 47.75 213.266 46.0859C213.266 44.4922 211.953 43.8125 208.156 43.1328L204.758 42.5234C198.031 41.3281 194.352 37.9297 194.352 32.6797C194.352 25.8828 200.211 21.5938 208.25 21.5938C214.953 21.5938 219.758 23.9609 221.516 28.1797C221.797 28.8594 221.938 29.4922 221.938 30.2656C221.938 32.5156 220.297 34.0391 217.812 34.0625C215.703 34.0625 214.367 33.3359 213.172 31.5312C212.07 29.8438 210.5 29.2109 208.367 29.2109C205.602 29.2109 204.195 30.4297 204.195 31.9531C204.195 33.4766 205.648 34.2031 209.023 34.8125L212.422 35.4219C219.688 36.7344 223.109 39.7109 223.109 45.1953C223.109 52.1562 217.672 56.5859 208.344 56.5859ZM236.581 56C233.417 56 231.613 54.125 231.613 50.7969V27.3828C231.613 24.0547 233.417 22.1797 236.581 22.1797H251.558C254.23 22.1797 255.941 23.6094 255.941 26.1406C255.941 28.6719 254.183 30.1016 251.558 30.1016H241.55V35.5391H251.159C253.527 35.5391 255.073 36.8281 255.073 39.1016C255.073 41.375 253.573 42.6641 251.159 42.6641H241.55V48.0781H251.558C254.183 48.0781 255.941 49.5078 255.941 52.0391C255.941 54.5703 254.23 56 251.558 56H236.581ZM271.123 45.3125C268.358 45.3125 266.998 43.7188 266.905 40.9062L266.413 27.7812C266.389 27.2891 266.366 26.75 266.366 26.3516C266.366 23.3281 268.123 21.5938 271.147 21.5938C274.17 21.5938 275.881 23.3281 275.881 26.3516C275.881 26.75 275.858 27.2891 275.834 27.7812L275.342 40.9062C275.248 43.7188 273.866 45.3125 271.123 45.3125ZM271.123 56.9375C268.358 56.9375 266.131 54.875 266.131 52.25C266.131 49.6484 268.358 47.5859 271.123 47.5859C273.842 47.5859 276.092 49.6484 276.092 52.25C276.092 54.875 273.842 56.9375 271.123 56.9375Z" fill="url(#paint2_linear_903_1679)"/>
<path d="M132.369 48.0781H130.369V50.0781H132.369V48.0781ZM127.4 56V54C126.215 54 125.552 53.6584 125.174 53.2637C124.784 52.8563 124.431 52.1123 124.431 50.7969H122.431H120.431C120.431 52.8095 120.981 54.6672 122.284 56.0293C123.6 57.4041 125.421 58 127.4 58V56ZM122.431 50.7969H124.431V26.7969H122.431H120.431V50.7969H122.431ZM122.431 26.7969H124.431C124.431 25.4814 124.784 24.7375 125.174 24.33C125.552 23.9354 126.215 23.5938 127.4 23.5938V21.5938V19.5938C125.421 19.5938 123.6 20.1896 122.284 21.5645C120.981 22.9266 120.431 24.7842 120.431 26.7969H122.431ZM127.4 21.5938V23.5938C128.585 23.5938 129.248 23.9354 129.626 24.33C130.016 24.7375 130.369 25.4814 130.369 26.7969H132.369H134.369C134.369 24.7842 133.819 22.9266 132.516 21.5645C131.2 20.1896 129.379 19.5938 127.4 19.5938V21.5938ZM132.369 26.7969H130.369V48.0781H132.369H134.369V26.7969H132.369ZM132.369 48.0781V50.0781H141.72V48.0781V46.0781H132.369V48.0781ZM141.72 48.0781V50.0781C142.686 50.0781 143.266 50.3399 143.577 50.6124C143.853 50.855 144.103 51.266 144.103 52.0391H146.103H148.103C148.103 50.2808 147.474 48.7114 146.216 47.6064C144.991 46.5312 143.38 46.0781 141.72 46.0781V48.0781ZM146.103 52.0391H144.103C144.103 52.8286 143.854 53.2363 143.589 53.4708C143.29 53.7346 142.717 54 141.72 54V56V58C143.396 58 145.014 57.5506 146.239 56.4667C147.497 55.3535 148.103 53.7808 148.103 52.0391H146.103ZM141.72 56V54H127.4V56V58H141.72V56ZM168.997 56.5859V54.5859C164.192 54.5859 160.486 53.0641 157.979 50.498C155.468 47.9268 153.958 44.0979 153.958 39.1016H151.958H149.958C149.958 44.9099 151.729 49.8232 155.118 53.293C158.512 56.7679 163.325 58.5859 168.997 58.5859V56.5859ZM151.958 39.1016H153.958C153.958 34.107 155.473 30.271 157.989 27.6927C160.5 25.1196 164.207 23.5938 168.997 23.5938V21.5938V19.5938C163.334 19.5938 158.521 21.4195 155.126 24.8991C151.736 28.3735 149.958 33.2915 149.958 39.1016H151.958ZM168.997 21.5938V23.5938C173.787 23.5938 177.494 25.1196 180.005 27.6927C182.521 30.271 184.036 34.107 184.036 39.1016H186.036H188.036C188.036 33.2915 186.258 28.3735 182.868 24.8991C179.472 21.4195 174.66 19.5938 168.997 19.5938V21.5938ZM186.036 39.1016H184.036C184.036 44.096 182.521 47.9252 180.006 50.4973C177.496 53.0647 173.789 54.5859 168.997 54.5859V56.5859V58.5859C174.658 58.5859 179.47 56.7673 182.866 53.2937C186.258 49.8248 188.036 44.9118 188.036 39.1016H186.036ZM168.997 48.6641V50.6641C171.753 50.6641 174.071 49.4016 175.636 47.247C177.161 45.1483 177.911 42.3057 177.911 39.1016H175.911H173.911C173.911 41.7333 173.29 43.672 172.4 44.8956C171.552 46.0633 170.413 46.6641 168.997 46.6641V48.6641ZM175.911 39.1016H177.911C177.911 35.8836 177.154 33.0357 175.627 30.9352C174.06 28.7805 171.744 27.5156 168.997 27.5156V29.5156V31.5156C170.399 31.5156 171.539 32.1141 172.392 33.2875C173.285 34.5151 173.911 36.4601 173.911 39.1016H175.911ZM168.997 29.5156V27.5156C166.25 27.5156 163.933 28.7805 162.367 30.9352C160.839 33.0357 160.083 35.8836 160.083 39.1016H162.083H164.083C164.083 36.4601 164.709 34.5151 165.602 33.2875C166.455 32.1141 167.595 31.5156 168.997 31.5156V29.5156ZM162.083 39.1016H160.083C160.083 42.3057 160.832 45.1483 162.357 47.247C163.923 49.4016 166.241 50.6641 168.997 50.6641V48.6641V46.6641C167.581 46.6641 166.442 46.0633 165.593 44.8956C164.704 43.672 164.083 41.7333 164.083 39.1016H162.083ZM194.867 50.5391L196.698 49.734L196.693 49.7227L196.688 49.7115L194.867 50.5391ZM203.094 46.625L204.729 45.4734L204.723 45.4645L203.094 46.625ZM208.156 43.1328L207.803 45.1014L207.804 45.1015L208.156 43.1328ZM204.758 42.5234L205.111 40.5548L205.108 40.5543L204.758 42.5234ZM221.516 28.1797L223.364 27.415L223.362 27.4105L221.516 28.1797ZM217.812 34.0625V36.0625H217.822L217.831 36.0624L217.812 34.0625ZM213.172 31.5312L211.497 32.6245L211.504 32.6356L213.172 31.5312ZM209.023 34.8125L208.668 36.7807L208.67 36.7811L209.023 34.8125ZM212.422 35.4219L212.777 33.4537L212.775 33.4533L212.422 35.4219ZM208.344 56.5859V54.5859C201.098 54.5859 197.691 51.9923 196.698 49.734L194.867 50.5391L193.036 51.3441C194.95 55.6952 200.355 58.5859 208.344 58.5859V56.5859ZM194.867 50.5391L196.688 49.7115C196.455 49.1984 196.352 48.6837 196.352 48.1953H194.352H192.352C192.352 49.2538 192.577 50.3329 193.046 51.3667L194.867 50.5391ZM194.352 48.1953H196.352C196.352 47.035 197.131 46.1641 198.617 46.1641V44.1641V42.1641C195.182 42.1641 192.352 44.5744 192.352 48.1953H194.352ZM198.617 44.1641V46.1641C199.34 46.1641 199.776 46.2756 200.12 46.4581C200.476 46.6471 200.91 47.006 201.465 47.7855L203.094 46.625L204.723 45.4645C203.942 44.369 203.074 43.4975 201.995 42.9247C200.903 42.3455 199.769 42.1641 198.617 42.1641V44.1641ZM203.094 46.625L201.459 47.7766C203.144 50.1695 205.869 50.9688 208.461 50.9688V48.9688V46.9688C206.6 46.9688 205.388 46.4086 204.729 45.4734L203.094 46.625ZM208.461 48.9688V50.9688C210.191 50.9688 211.792 50.6191 213.031 49.8524C214.313 49.0601 215.266 47.7583 215.266 46.0859H213.266H211.266C211.266 46.1199 211.261 46.1415 211.238 46.1776C211.209 46.2235 211.128 46.3266 210.928 46.4503C210.509 46.709 209.707 46.9688 208.461 46.9688V48.9688ZM213.266 46.0859H215.266C215.266 45.4016 215.121 44.6807 214.708 44.0049C214.302 43.3404 213.729 42.8704 213.12 42.5258C211.986 41.8846 210.395 41.5018 208.509 41.1641L208.156 43.1328L207.804 45.1015C209.714 45.4436 210.678 45.7404 211.15 46.0074C211.344 46.1169 211.336 46.1581 211.295 46.0905C211.246 46.0117 211.266 45.9734 211.266 46.0859H213.266ZM208.156 43.1328L208.509 41.1642L205.111 40.5548L204.758 42.5234L204.405 44.492L207.803 45.1014L208.156 43.1328ZM204.758 42.5234L205.108 40.5543C201.978 39.9981 199.787 38.9665 198.402 37.6649C197.068 36.4108 196.352 34.7876 196.352 32.6797H194.352H192.352C192.352 35.8217 193.475 38.5228 195.662 40.5793C197.799 42.5882 200.811 43.8535 204.408 44.4926L204.758 42.5234ZM194.352 32.6797H196.352C196.352 29.9175 197.516 27.7212 199.514 26.1663C201.556 24.578 204.566 23.5938 208.25 23.5938V21.5938V19.5938C203.895 19.5938 199.956 20.7541 197.058 23.0095C194.117 25.2983 192.352 28.645 192.352 32.6797H194.352ZM208.25 21.5938V23.5938C214.594 23.5938 218.364 25.8168 219.669 28.9489L221.516 28.1797L223.362 27.4105C221.151 22.1051 215.312 19.5938 208.25 19.5938V21.5938ZM221.516 28.1797L219.668 28.9444C219.857 29.4017 219.938 29.7755 219.938 30.2656H221.938H223.938C223.938 29.2089 223.737 28.317 223.364 27.415L221.516 28.1797ZM221.938 30.2656H219.938C219.938 30.8794 219.727 31.2736 219.45 31.5292C219.158 31.7991 218.634 32.0547 217.794 32.0626L217.812 34.0625L217.831 36.0624C219.476 36.0469 221.014 35.529 222.163 34.4689C223.327 33.3944 223.938 31.9018 223.938 30.2656H221.938ZM217.812 34.0625V32.0625C216.992 32.0625 216.483 31.9226 216.107 31.7176C215.727 31.5105 215.316 31.1462 214.839 30.4269L213.172 31.5312L211.504 32.6356C212.223 33.721 213.078 34.6223 214.192 35.2297C215.31 35.8391 216.524 36.0625 217.812 36.0625V34.0625ZM213.172 31.5312L214.847 30.438C214.108 29.3062 213.161 28.4627 211.997 27.9235C210.858 27.3959 209.623 27.2109 208.367 27.2109V29.2109V31.2109C209.245 31.2109 209.861 31.3423 210.316 31.553C210.745 31.7521 211.134 32.0688 211.497 32.6245L213.172 31.5312ZM208.367 29.2109V27.2109C206.719 27.2109 205.226 27.5706 204.086 28.38C202.893 29.2275 202.195 30.5052 202.195 31.9531H204.195H206.195C206.195 31.8776 206.201 31.7842 206.402 31.6414C206.657 31.4606 207.25 31.2109 208.367 31.2109V29.2109ZM204.195 31.9531H202.195C202.195 32.6726 202.373 33.3909 202.796 34.0438C203.206 34.6765 203.768 35.1289 204.352 35.4625C205.459 36.0946 206.965 36.4732 208.668 36.7807L209.023 34.8125L209.379 32.8443C207.707 32.5424 206.798 32.253 206.335 31.9887C206.135 31.8741 206.122 31.821 206.154 31.87C206.199 31.9392 206.195 31.9953 206.195 31.9531H204.195ZM209.023 34.8125L208.67 36.7811L212.069 37.3905L212.422 35.4219L212.775 33.4533L209.376 32.8439L209.023 34.8125ZM212.422 35.4219L212.066 37.39C215.541 38.0177 217.786 38.9963 219.149 40.228C220.425 41.3811 221.109 42.9199 221.109 45.1953H223.109H225.109C225.109 41.9863 224.083 39.2947 221.831 37.2603C219.667 35.3045 216.569 34.1386 212.777 33.4537L212.422 35.4219ZM223.109 45.1953H221.109C221.109 48.1022 220.001 50.3526 217.992 51.9263C215.925 53.5446 212.719 54.5859 208.344 54.5859V56.5859V58.5859C213.297 58.5859 217.474 57.4124 220.458 55.0756C223.499 52.6943 225.109 49.2494 225.109 45.1953H223.109ZM241.55 30.1016V28.1016H239.55V30.1016H241.55ZM241.55 35.5391H239.55V37.5391H241.55V35.5391ZM241.55 42.6641V40.6641H239.55V42.6641H241.55ZM241.55 48.0781H239.55V50.0781H241.55V48.0781ZM236.581 56V54C235.396 54 234.733 53.6584 234.355 53.2637C233.965 52.8563 233.613 52.1123 233.613 50.7969H231.613H229.613C229.613 52.8095 230.162 54.6672 231.465 56.0293C232.781 57.4041 234.602 58 236.581 58V56ZM231.613 50.7969H233.613V27.3828H231.613H229.613V50.7969H231.613ZM231.613 27.3828H233.613C233.613 26.0674 233.965 25.3234 234.355 24.916C234.733 24.5213 235.396 24.1797 236.581 24.1797V22.1797V20.1797C234.602 20.1797 232.781 20.7756 231.465 22.1504C230.162 23.5125 229.613 25.3701 229.613 27.3828H231.613ZM236.581 22.1797V24.1797H251.558V22.1797V20.1797H236.581V22.1797ZM251.558 22.1797V24.1797C252.554 24.1797 253.128 24.4451 253.426 24.7089C253.691 24.9434 253.941 25.3511 253.941 26.1406H255.941H257.941C257.941 24.3989 257.335 22.8262 256.076 21.7129C254.851 20.6291 253.233 20.1797 251.558 20.1797V22.1797ZM255.941 26.1406H253.941C253.941 26.9137 253.69 27.3247 253.414 27.5673C253.104 27.8398 252.523 28.1016 251.558 28.1016V30.1016V32.1016C253.217 32.1016 254.828 31.6485 256.053 30.5733C257.312 29.4682 257.941 27.8988 257.941 26.1406H255.941ZM251.558 30.1016V28.1016H241.55V30.1016V32.1016H251.558V30.1016ZM241.55 30.1016H239.55V35.5391H241.55H243.55V30.1016H241.55ZM241.55 35.5391V37.5391H251.159V35.5391V33.5391H241.55V35.5391ZM251.159 35.5391V37.5391C251.996 37.5391 252.453 37.7652 252.676 37.9629C252.867 38.1328 253.073 38.4443 253.073 39.1016H255.073H257.073C257.073 37.4853 256.507 36.0157 255.332 34.9726C254.19 33.9575 252.69 33.5391 251.159 33.5391V35.5391ZM255.073 39.1016H253.073C253.073 39.7773 252.866 40.0851 252.687 40.2459C252.477 40.4338 252.027 40.6641 251.159 40.6641V42.6641V44.6641C252.706 44.6641 254.213 44.2498 255.356 43.2248C256.53 42.1727 257.073 40.6993 257.073 39.1016H255.073ZM251.159 42.6641V40.6641H241.55V42.6641V44.6641H251.159V42.6641ZM241.55 42.6641H239.55V48.0781H241.55H243.55V42.6641H241.55ZM241.55 48.0781V50.0781H251.558V48.0781V46.0781H241.55V48.0781ZM251.558 48.0781V50.0781C252.523 50.0781 253.104 50.3399 253.414 50.6124C253.69 50.855 253.941 51.266 253.941 52.0391H255.941H257.941C257.941 50.2808 257.312 48.7114 256.053 47.6064C254.828 46.5312 253.217 46.0781 251.558 46.0781V48.0781ZM255.941 52.0391H253.941C253.941 52.8286 253.691 53.2363 253.426 53.4708C253.128 53.7346 252.554 54 251.558 54V56V58C253.233 58 254.851 57.5506 256.076 56.4667C257.335 55.3535 257.941 53.7808 257.941 52.0391H255.941ZM251.558 56V54H236.581V56V58H251.558V56ZM266.905 40.9062L268.904 40.8396L268.903 40.8313L266.905 40.9062ZM266.413 27.7812L268.411 27.7063L268.411 27.6962L268.41 27.6861L266.413 27.7812ZM275.834 27.7812L273.837 27.6861L273.836 27.6962L273.836 27.7063L275.834 27.7812ZM275.342 40.9062L273.344 40.8313L273.343 40.8396L275.342 40.9062ZM271.123 45.3125V43.3125C270.131 43.3125 269.696 43.0383 269.477 42.8023C269.224 42.5305 268.941 41.9674 268.904 40.8396L266.905 40.9062L264.906 40.9729C264.962 42.6576 265.406 44.2977 266.547 45.5258C267.722 46.7898 269.35 47.3125 271.123 47.3125V45.3125ZM266.905 40.9062L268.903 40.8313L268.411 27.7063L266.413 27.7812L264.414 27.8562L264.906 40.9812L266.905 40.9062ZM266.413 27.7812L268.41 27.6861C268.386 27.186 268.366 26.6945 268.366 26.3516H266.366H264.366C264.366 26.8055 264.392 27.3922 264.415 27.8764L266.413 27.7812ZM266.366 26.3516H268.366C268.366 25.2253 268.686 24.6017 269.032 24.2582C269.38 23.9125 270.013 23.5938 271.147 23.5938V21.5938V19.5938C269.257 19.5938 267.5 20.1422 266.213 21.4196C264.925 22.6991 264.366 24.4544 264.366 26.3516H266.366ZM271.147 21.5938V23.5938C272.28 23.5938 272.895 23.9117 273.229 24.2479C273.565 24.5864 273.881 25.2107 273.881 26.3516H275.881H277.881C277.881 24.469 277.343 22.7144 276.067 21.4298C274.79 20.143 273.037 19.5938 271.147 19.5938V21.5938ZM275.881 26.3516H273.881C273.881 26.6945 273.86 27.186 273.837 27.6861L275.834 27.7812L277.832 27.8764C277.855 27.3922 277.881 26.8055 277.881 26.3516H275.881ZM275.834 27.7812L273.836 27.7063L273.344 40.8313L275.342 40.9062L277.341 40.9812L277.833 27.8562L275.834 27.7812ZM275.342 40.9062L273.343 40.8396C273.306 41.9594 273.021 42.5242 272.764 42.7992C272.539 43.0406 272.1 43.3125 271.123 43.3125V45.3125V47.3125C272.889 47.3125 274.513 46.7875 275.688 45.5289C276.832 44.3039 277.285 42.6656 277.341 40.9729L275.342 40.9062ZM271.123 56.9375V54.9375C269.334 54.9375 268.131 53.6461 268.131 52.25H266.131H264.131C264.131 56.1039 267.382 58.9375 271.123 58.9375V56.9375ZM266.131 52.25H268.131C268.131 50.8837 269.327 49.5859 271.123 49.5859V47.5859V45.5859C267.389 45.5859 264.131 48.4132 264.131 52.25H266.131ZM271.123 47.5859V49.5859C272.873 49.5859 274.092 50.8837 274.092 52.25H276.092H278.092C278.092 48.4132 274.811 45.5859 271.123 45.5859V47.5859ZM276.092 52.25H274.092C274.092 53.6461 272.866 54.9375 271.123 54.9375V56.9375V58.9375C274.818 58.9375 278.092 56.1039 278.092 52.25H276.092Z" fill="#576598" mask="url(#path-3-outside-2_903_1679)"/>
<defs>
<linearGradient id="paint0_linear_903_1679" x1="0" y1="39.5" x2="400" y2="39.5" gradientUnits="userSpaceOnUse">
<stop stop-color="#80A3BA" stop-opacity="0"/>
<stop offset="0.3" stop-color="#80A3BA" stop-opacity="0.7"/>
<stop offset="0.7" stop-color="#80A3BA" stop-opacity="0.7"/>
<stop offset="1" stop-color="#80A3BA" stop-opacity="0"/>
</linearGradient>
<linearGradient id="paint1_linear_903_1679" x1="0" y1="39.5" x2="400" y2="39.5" gradientUnits="userSpaceOnUse">
<stop stop-color="#ABCFE6" stop-opacity="0"/>
<stop offset="0.5" stop-color="#ABCFE6"/>
<stop offset="1" stop-color="#ABCFE6" stop-opacity="0"/>
</linearGradient>
<linearGradient id="paint2_linear_903_1679" x1="200" y1="15" x2="200" y2="63" gradientUnits="userSpaceOnUse">
<stop offset="0.302885" stop-color="#FCFFFB"/>
<stop offset="0.802885" stop-color="#9A9898"/>
</linearGradient>
</defs>
</svg>
