<svg width="226" height="225" viewBox="0 0 226 225" fill="none" xmlns="http://www.w3.org/2000/svg">
<ellipse cx="112.959" cy="112.5" rx="112.401" ry="112.5" fill="#D2FCEA"/>
<path d="M110.262 98.6872C152.273 88.7758 193.199 92.1315 225.361 105.565C225.969 115.773 225.186 126.236 222.86 136.715C209.398 197.368 149.358 235.615 88.7584 222.14C52.1448 213.999 23.7056 188.84 9.896 156.822C32.6634 130.181 67.9699 108.665 110.262 98.6872Z" fill="#C7F0DF"/>
<rect width="2.84511" height="20.0725" transform="matrix(0.901403 0.432981 -0.429923 0.902866 122.027 133.599)" fill="#206D5F"/>
<path d="M56.0657 73.7501C56.0657 73.7501 62.7554 72.701 67.1455 73.3306C71.5356 73.9602 81.1344 78.581 89.7232 82.779C95.1586 85.4357 109.792 94.3267 122.545 102.726C140.59 114.611 149.094 121.202 166.237 134.64C173.207 140.104 183.404 149.304 182.125 151.017C180.87 152.696 176.412 154.403 172.09 155.636C166.886 157.121 162.892 158.499 158.502 157.107C150.558 154.587 138.288 145.48 125.889 137.159C113.358 128.749 94.7405 114.273 94.7405 114.273C94.7405 114.273 80.3967 104.143 68.1908 94.3267C53.8326 82.779 49.1147 80.0491 49.7941 77.3195C50.4735 74.59 56.0657 73.7501 56.0657 73.7501Z" fill="#8ACDC5"/>
<ellipse cx="6.27972" cy="8.17809" rx="6.27972" ry="8.17809" transform="matrix(0.837462 0.546495 -0.543161 0.839629 88.4146 132.758)" fill="#298D7E"/>
<ellipse cx="2.25964" cy="3.6617" rx="2.25964" ry="3.6617" transform="matrix(0.87006 0.492946 -0.489702 0.87189 89.8066 138.637)" fill="#3FAA9C"/>
<path d="M52.9172 109.134C46.0186 114.383 45.4504 121.447 47.2728 129.291C50.1997 141.889 56.6803 145.668 60.0251 145.668C67.5511 145.668 75.3278 145.794 88.8744 143.779C102.421 141.763 118.535 137.274 136.33 129.711C152.009 123.047 160.298 117.459 174.586 108.715C187.966 100.526 185.875 95.4868 185.248 94.4369C183.994 92.3373 179.813 90.4104 171.869 90.2377C143.019 89.6104 118.56 89.8177 98.2818 91.9173C78.0036 94.017 63.131 101.363 52.9172 109.134Z" fill="#E2F2F1"/>
<path d="M166.122 147.246L169.676 137.378L166.54 134.859C165.425 137.658 163.111 143.509 162.777 144.517C162.359 145.777 162.777 146.827 163.822 147.246C164.658 147.582 165.704 147.386 166.122 147.246Z" fill="#298D7E"/>
<path d="M113.542 116.841L126.712 113.272L127.548 108.023L117.305 97.9446C113.611 96.9648 105.556 95.0891 102.88 95.425C100.204 95.761 94.7268 97.5247 93.2635 98.1546C90.1405 99.4989 87.8281 101.514 88.2462 105.293C88.6643 109.073 97.4445 113.272 102.88 115.792C107.228 117.807 111.8 117.331 113.542 116.841Z" fill="#3FAA9C"/>
<path d="M113.659 116.901L126.83 113.332L127.666 108.083L117.422 98.0045C113.729 97.0246 108.551 97.6686 105.876 98.0045C103.2 98.3405 96.6772 100.694 95.2139 101.324C92.091 102.668 90.1965 105.603 90.8237 108.083C91.4509 110.563 97.8827 114.092 103.158 116.232C107.599 118.033 111.917 117.391 113.659 116.901Z" fill="#298D7E"/>
<path d="M68.1902 57.7927C68.1902 57.7927 74.8799 56.7436 79.27 57.3732C83.6601 58.0028 93.2589 62.6236 101.848 66.8216C107.283 69.4783 121.917 78.3693 134.669 86.7683C152.715 98.6537 161.219 105.245 178.361 118.682C185.331 124.146 195.529 133.347 194.249 135.06C192.995 136.739 188.537 138.446 184.215 139.679C179.01 141.164 175.016 142.542 170.626 141.149C162.682 138.629 150.412 129.523 138.014 121.202C125.482 112.792 106.865 98.3159 106.865 98.3159C106.865 98.3159 92.5212 88.1859 80.3153 78.3693C65.9571 66.8216 61.2392 64.0917 61.9186 61.3621C62.598 58.6326 68.1902 57.7927 68.1902 57.7927Z" fill="#206D5F"/>
<ellipse cx="11.4424" cy="18.5841" rx="11.4424" ry="18.5841" transform="matrix(0.982618 -0.185639 0.184085 0.98291 42.5249 112.018)" fill="#298D7E"/>
<path d="M53.9126 132.759L55.1669 129.4C62.8322 133.809 79.3335 143.384 84.0162 146.407C89.8697 150.186 89.6607 151.656 89.4516 153.756C89.2426 155.855 88.7199 157.745 87.152 159.845C85.2706 162.364 81.5076 160.895 80.8804 160.475C80.3787 160.139 67.7101 147.877 67.7101 147.877L53.9126 132.759Z" fill="#8ACDC5"/>
<path d="M43.8772 125.83L48.2673 122.89L32.3793 107.143C30.7069 105.673 27.6271 102.944 25.8986 103.574C24.8533 103.954 23.0822 107.478 22.7629 109.243C22.3447 111.553 23.39 112.392 24.4353 113.442L43.8772 125.83Z" fill="#8ACDC5"/>
<path d="M60.6015 132.125C62.2049 131.158 62.4635 128.765 62.483 127.295C62.5025 125.826 61.5632 124.23 60.3925 122.046C59.2218 119.863 56.5598 120.017 55.3752 120.366C52.5878 121.486 46.595 123.936 44.9226 124.776C42.832 125.826 41.3687 127.295 41.3687 130.025C41.3687 132.754 44.0863 135.694 47.0131 135.484C49.9398 135.274 58.511 133.384 60.6015 132.125Z" fill="#E2F2F1"/>
<path d="M68.3356 81.5278L71.8895 71.6595L68.7537 69.1399C67.6388 71.9394 65.3253 77.7904 64.9908 78.7983C64.5727 80.0581 64.9908 81.1079 66.0361 81.5278C66.8723 81.8638 67.9175 81.6678 68.3356 81.5278Z" fill="#298D7E"/>
<path d="M176.739 70.626L154.37 99.3911L181.965 93.5121C184.613 87.2832 189.575 73.5655 190.745 70.2061C191.916 66.8466 189.282 67.2666 188.864 67.2665H181.965C179.122 67.2665 177.575 69.5762 176.739 70.626Z" fill="#206D5F"/>
<path d="M181.547 101.281L165.45 105.69C171.582 107.79 184.976 112.409 189.491 114.089C194.007 115.768 197.505 116.048 198.69 115.978C199.665 115.838 202.118 115.18 204.125 114.509C206.132 113.837 204.543 112.619 203.498 111.989L192.627 106.53L181.547 101.281Z" fill="#206D5F"/>
<ellipse cx="6.27972" cy="8.17809" rx="6.27972" ry="8.17809" transform="matrix(0.837462 0.546495 -0.543161 0.839629 110.992 147.23)" fill="#298D7E"/>
<ellipse cx="2.25964" cy="3.6617" rx="2.25964" ry="3.6617" transform="matrix(0.87006 0.492946 -0.489702 0.87189 112.802 152.27)" fill="#3FAA9C"/>
</svg>
