<svg width="72" height="103" viewBox="0 0 72 103" fill="none" xmlns="http://www.w3.org/2000/svg">
<path d="M34.9258 1.41064C39.7047 1.41074 43.5703 5.29924 43.5703 10.0854C43.5702 14.8716 39.7046 18.7602 34.9258 18.7603C30.1469 18.7603 26.2814 14.8716 26.2812 10.0854C26.2812 5.29918 30.1468 1.41064 34.9258 1.41064Z" fill="#58A3AA" stroke="#EBE1C8" stroke-width="2.45161"/>
<path d="M59.0879 16.104C64.4732 16.1042 68.83 20.4862 68.8301 25.8813C68.8301 31.2766 64.4733 35.6585 59.0879 35.6587C53.7023 35.6587 49.3447 31.2767 49.3447 25.8813C49.3448 20.486 53.7023 16.104 59.0879 16.104Z" fill="#58A3AA" stroke="#EBE1C8" stroke-width="2.45161"/>
<path d="M46.1738 48.9756C46.1738 41.8439 51.9552 36.0625 59.0869 36.0625V36.0625C66.2186 36.0625 72 41.8439 72 48.9756V56.9676C72 59.3664 70.0555 61.3109 67.6567 61.3109H50.5171C48.1184 61.3109 46.1738 59.3664 46.1738 56.9676V48.9756Z" fill="#58A3AA"/>
<path d="M12.9131 16.104C18.2984 16.1042 22.6552 20.4862 22.6553 25.8813C22.6553 31.2766 18.2985 35.6585 12.9131 35.6587C7.5275 35.6587 3.16992 31.2767 3.16992 25.8813C3.16999 20.486 7.52754 16.104 12.9131 16.104Z" fill="#58A3AA" stroke="#EBE1C8" stroke-width="2.45161"/>
<path d="M0 48.9756C0 41.8439 5.7814 36.0625 12.9131 36.0625V36.0625C20.0448 36.0625 25.8262 41.8439 25.8262 48.9756V56.9676C25.8262 59.3664 23.8816 61.3109 21.4829 61.3109H4.34332C1.94457 61.3109 0 59.3664 0 56.9676V48.9756Z" fill="#58A3AA"/>
<path d="M34.9248 19.2998C40.9169 19.2998 45.7664 24.1754 45.7666 30.1797C45.7666 36.1842 40.917 41.0605 34.9248 41.0605C28.9327 41.0604 24.084 36.184 24.084 30.1797C24.0842 24.1755 28.9329 19.3 34.9248 19.2998Z" fill="#58A3AA" stroke="#EBE1C8" stroke-width="2.45161"/>
<path d="M34.9258 41.6343C43.6541 41.6343 50.7303 48.7097 50.7305 57.438V66.4614C50.7302 69.8463 47.9855 72.5903 44.6006 72.5903H25.251C21.8661 72.5903 19.1223 69.8463 19.1221 66.4614V57.438C19.1222 48.7098 26.1976 41.6344 34.9258 41.6343Z" fill="#58A3AA" stroke="#EBE1C8" stroke-width="2.45161"/>
<path d="M30.7605 89.5438C30.7205 90.2504 30.6805 90.9704 30.6405 91.7038C31.1072 91.6904 31.5405 91.6838 31.9405 91.6838C32.3539 91.6704 32.6739 91.6638 32.9005 91.6638C33.3939 91.6638 33.6405 92.0371 33.6405 92.7838C33.6405 93.2238 33.5739 93.5438 33.4405 93.7438C33.3072 93.9438 33.1205 94.0638 32.8805 94.1038C32.5739 94.1438 32.2072 94.1838 31.7805 94.2238C31.3672 94.2638 30.9339 94.3038 30.4805 94.3438C30.4405 94.8904 30.4005 95.4038 30.3605 95.8838C30.3339 96.3504 30.3072 96.7571 30.2805 97.1038C30.2405 97.5704 30.1139 97.9171 29.9005 98.1438C29.6872 98.3704 29.3272 98.4838 28.8205 98.4838C28.2739 98.4838 27.9072 98.3504 27.7205 98.0838C27.5472 97.8304 27.4539 97.4904 27.4405 97.0638C27.4272 96.6904 27.4139 96.2971 27.4005 95.8838C27.4005 95.4704 27.4005 95.0371 27.4005 94.5838C26.9605 94.6104 26.5272 94.6371 26.1005 94.6638C25.6739 94.6771 25.2739 94.6971 24.9005 94.7238C24.5405 94.7371 24.2139 94.7504 23.9205 94.7638C23.6405 94.7638 23.4139 94.7638 23.2405 94.7638C22.6005 94.7638 22.0872 94.5838 21.7005 94.2238C21.3139 93.8638 21.1272 93.3638 21.1405 92.7238C21.1405 92.2704 21.1539 91.7171 21.1805 91.0638C21.2205 90.3971 21.2605 89.7038 21.3005 88.9838C21.3539 88.2638 21.4072 87.5438 21.4605 86.8238C21.5139 86.1038 21.5672 85.4571 21.6205 84.8838C21.6339 84.7238 21.6605 84.5704 21.7005 84.4238C21.7539 84.2771 21.8405 84.1504 21.9605 84.0438C22.0939 83.9238 22.2672 83.8304 22.4805 83.7638C22.7072 83.6971 23.0005 83.6638 23.3605 83.6638C23.7072 83.6638 23.9805 83.6971 24.1805 83.7638C24.3939 83.8171 24.5539 83.8971 24.6605 84.0038C24.7672 84.1104 24.8339 84.2438 24.8605 84.4038C24.8872 84.5504 24.8939 84.7171 24.8805 84.9038C24.8805 84.9571 24.8672 85.1438 24.8405 85.4638C24.8272 85.7704 24.8005 86.1504 24.7605 86.6038C24.7339 87.0571 24.7005 87.5504 24.6605 88.0838C24.6339 88.6038 24.6072 89.0971 24.5805 89.5638C24.5539 90.0304 24.5272 90.4304 24.5005 90.7638C24.4872 91.0971 24.4805 91.2971 24.4805 91.3638C24.4805 91.5904 24.5139 91.7371 24.5805 91.8038C24.6605 91.8571 24.8139 91.8771 25.0405 91.8638C25.2672 91.8371 25.6072 91.8238 26.0605 91.8238C26.5139 91.8104 26.9739 91.7971 27.4405 91.7838C27.4672 90.5704 27.5005 89.3704 27.5405 88.1838C27.5805 86.9838 27.6405 85.8171 27.7205 84.6838C27.7339 84.5104 27.7539 84.3504 27.7805 84.2038C27.8205 84.0571 27.8939 83.9371 28.0005 83.8438C28.1205 83.7371 28.2872 83.6638 28.5005 83.6238C28.7272 83.5704 29.0272 83.5504 29.4005 83.5638C29.7472 83.5904 30.0205 83.6438 30.2205 83.7238C30.4339 83.7904 30.5939 83.8838 30.7005 84.0038C30.8205 84.1238 30.8939 84.2638 30.9205 84.4238C30.9605 84.5704 30.9805 84.7371 30.9805 84.9238C30.9805 85.1638 30.9672 85.5171 30.9405 85.9838C30.9272 86.4371 30.9072 86.9704 30.8805 87.5838C30.8539 88.1838 30.8139 88.8371 30.7605 89.5438ZM45.1618 90.2438C44.9085 90.8571 44.5418 91.3971 44.0618 91.8638C43.5818 92.3171 43.0018 92.6771 42.3218 92.9438C41.6551 93.1971 40.9085 93.3238 40.0818 93.3238C39.1618 93.3238 38.3618 93.2038 37.6818 92.9638C37.0018 92.7104 36.4351 92.3638 35.9818 91.9238C35.5285 91.4704 35.1885 90.9304 34.9618 90.3038C34.7485 89.6771 34.6418 88.9904 34.6418 88.2438C34.6418 87.5238 34.7685 86.8438 35.0218 86.2038C35.2885 85.5638 35.6685 85.0038 36.1618 84.5238C36.6551 84.0438 37.2618 83.6638 37.9818 83.3838C38.7151 83.1038 39.5418 82.9638 40.4618 82.9638C41.3151 82.9638 42.0618 83.1104 42.7018 83.4038C43.3418 83.6838 43.8751 84.0638 44.3018 84.5438C44.7285 85.0238 45.0418 85.5838 45.2418 86.2238C45.4551 86.8638 45.5618 87.5304 45.5618 88.2238C45.5618 88.9438 45.4285 89.6171 45.1618 90.2438ZM40.0218 90.6038C40.7418 90.6038 41.3151 90.3838 41.7418 89.9438C42.1685 89.5038 42.3818 88.9038 42.3818 88.1438C42.3818 87.3838 42.1818 86.7838 41.7818 86.3438C41.3818 85.9038 40.8618 85.6838 40.2218 85.6838C39.4618 85.6838 38.8685 85.9171 38.4418 86.3838C38.0285 86.8504 37.8218 87.4638 37.8218 88.2238C37.8218 88.9704 38.0285 89.5571 38.4418 89.9838C38.8551 90.3971 39.3818 90.6038 40.0218 90.6038ZM49.8818 94.0438C49.7618 94.2038 49.5685 94.3371 49.3018 94.4438C49.2218 94.4704 49.1085 94.4971 48.9618 94.5238C48.8151 94.5371 48.6551 94.5504 48.4818 94.5638C48.3085 94.5638 48.1418 94.5571 47.9818 94.5438C47.8218 94.5171 47.6951 94.4838 47.6018 94.4438C47.4285 94.3638 47.2751 94.2438 47.1418 94.0838C47.0218 93.9104 46.9618 93.6904 46.9618 93.4238C46.9485 92.8638 46.9351 92.1838 46.9218 91.3838C46.9218 90.5838 46.9151 89.7571 46.9018 88.9038C46.8885 88.0371 46.8818 87.1838 46.8818 86.3438C46.8818 85.4904 46.8885 84.7304 46.9018 84.0638C46.9018 83.5571 47.1085 83.2238 47.5218 83.0638C47.8418 82.9438 48.2085 82.8904 48.6218 82.9038C49.0351 82.9038 49.3951 82.9638 49.7018 83.0838C49.9151 83.1638 50.0551 83.2771 50.1218 83.4238C50.2018 83.5704 50.2418 83.7771 50.2418 84.0438C50.2551 84.6704 50.2618 85.4104 50.2618 86.2638C50.2618 87.1038 50.2551 87.9638 50.2418 88.8438C50.2418 89.7104 50.2285 90.5438 50.2018 91.3438C50.1885 92.1438 50.1618 92.8104 50.1218 93.3438C50.0951 93.6371 50.0151 93.8704 49.8818 94.0438ZM50.1018 99.8238C49.9685 100.037 49.7951 100.157 49.5818 100.184C49.1018 100.237 48.4751 100.284 47.7018 100.324C46.9418 100.364 46.1218 100.397 45.2418 100.424C44.3751 100.464 43.4951 100.497 42.6018 100.524C41.7218 100.55 40.9351 100.57 40.2418 100.584C39.3085 100.61 38.7885 100.157 38.6818 99.2238C38.6285 98.7571 38.5751 98.2104 38.5218 97.5838C38.4818 96.9704 38.4618 96.3238 38.4618 95.6438C38.4618 95.0038 38.6818 94.6238 39.1218 94.5038C39.4151 94.4238 39.7618 94.3771 40.1618 94.3638C40.5618 94.3371 40.8818 94.3371 41.1218 94.3638C41.4685 94.3904 41.6951 94.4838 41.8018 94.6438C41.9218 94.7904 41.9885 95.0371 42.0018 95.3838C42.0018 95.5971 42.0018 95.7904 42.0018 95.9638C42.0151 96.1238 42.0218 96.2838 42.0218 96.4438C42.0351 96.6038 42.0418 96.7704 42.0418 96.9438C42.0551 97.1171 42.0618 97.3171 42.0618 97.5438C42.0618 97.7838 42.1618 97.9038 42.3618 97.9038C42.7751 97.9038 43.2951 97.8971 43.9218 97.8838C44.5618 97.8838 45.2218 97.8771 45.9018 97.8638C46.5951 97.8504 47.2551 97.8371 47.8818 97.8238C48.5218 97.8104 49.0485 97.8038 49.4618 97.8038C49.9551 97.8038 50.2218 98.1504 50.2618 98.8438C50.2885 99.2971 50.2351 99.6238 50.1018 99.8238Z" fill="#3D8691"/>
</svg>
