<svg width="44" height="54" viewBox="0 0 44 54" fill="none" xmlns="http://www.w3.org/2000/svg">
<path d="M10.132 45.892V44.152C10.132 43.944 10.212 43.78 10.372 43.66C10.54 43.54 10.796 43.48 11.14 43.48C11.484 43.48 11.724 43.532 11.86 43.636C11.996 43.732 12.068 43.884 12.076 44.092C12.084 44.38 12.088 44.74 12.088 45.172C12.096 45.596 12.096 46.056 12.088 46.552C12.296 46.536 12.516 46.524 12.748 46.516C12.98 46.508 13.188 46.504 13.372 46.504C13.38 46.112 13.384 45.716 13.384 45.316C13.392 44.916 13.404 44.504 13.42 44.08C13.428 43.76 13.552 43.548 13.792 43.444C13.984 43.356 14.204 43.316 14.452 43.324C14.7 43.324 14.916 43.368 15.1 43.456C15.228 43.52 15.312 43.6 15.352 43.696C15.4 43.784 15.424 43.908 15.424 44.068C15.44 45.404 15.42 46.756 15.364 48.124C15.308 49.484 15.212 50.832 15.076 52.168C15.06 52.344 14.996 52.484 14.884 52.588C14.78 52.7 14.66 52.78 14.524 52.828C14.436 52.86 14.312 52.872 14.152 52.864C13.992 52.856 13.856 52.832 13.744 52.792C13.64 52.752 13.548 52.684 13.468 52.588C13.396 52.5 13.36 52.376 13.36 52.216C13.352 51.52 13.348 50.844 13.348 50.188C13.348 49.532 13.348 48.872 13.348 48.208C13.14 48.224 12.92 48.236 12.688 48.244C12.456 48.252 12.248 48.256 12.064 48.256C12.048 48.784 12.028 49.284 12.004 49.756C11.988 50.22 11.964 50.604 11.932 50.908C11.916 51.076 11.86 51.196 11.764 51.268C11.676 51.332 11.544 51.368 11.368 51.376C11.016 51.392 10.648 51.408 10.264 51.424C9.88 51.44 9.504 51.456 9.136 51.472C8.768 51.48 8.416 51.484 8.08 51.484C7.752 51.484 7.468 51.48 7.228 51.472C6.996 51.464 6.788 51.38 6.604 51.22C6.428 51.052 6.328 50.84 6.304 50.584C6.272 50.224 6.24 49.78 6.208 49.252C6.184 48.724 6.16 48.168 6.136 47.584C6.112 46.992 6.088 46.408 6.064 45.832C6.048 45.256 6.032 44.74 6.016 44.284C6.008 44.044 6.072 43.86 6.208 43.732C6.352 43.604 6.62 43.532 7.012 43.516C7.324 43.5 7.568 43.54 7.744 43.636C7.92 43.724 8.016 43.892 8.032 44.14C8.04 44.316 8.048 44.588 8.056 44.956C8.064 45.324 8.076 45.736 8.092 46.192L10.132 45.892ZM10.144 47.776L8.14 47.992C8.156 48.416 8.164 48.8 8.164 49.144C8.172 49.488 8.18 49.74 8.188 49.9C8.356 49.892 8.508 49.888 8.644 49.888C8.788 49.88 8.924 49.876 9.052 49.876C9.188 49.868 9.324 49.864 9.46 49.864C9.596 49.856 9.752 49.848 9.928 49.84C9.992 49.832 10.044 49.816 10.084 49.792C10.132 49.76 10.156 49.7 10.156 49.612L10.144 47.776ZM25.6346 52.168C25.6186 52.344 25.5546 52.484 25.4426 52.588C25.3386 52.7 25.2186 52.78 25.0826 52.828C24.9946 52.86 24.8706 52.872 24.7106 52.864C24.5506 52.856 24.4146 52.832 24.3026 52.792C24.1986 52.752 24.1066 52.684 24.0266 52.588C23.9546 52.5 23.9186 52.376 23.9186 52.216C23.9106 51.52 23.9066 50.84 23.9066 50.176C23.9066 49.512 23.9066 48.852 23.9066 48.196C23.9146 47.532 23.9226 46.864 23.9306 46.192C23.9466 45.512 23.9626 44.808 23.9786 44.08C23.9866 43.76 24.1106 43.548 24.3506 43.444C24.5426 43.356 24.7626 43.316 25.0106 43.324C25.2586 43.324 25.4746 43.368 25.6586 43.456C25.7866 43.52 25.8706 43.6 25.9106 43.696C25.9586 43.784 25.9826 43.908 25.9826 44.068C25.9986 45.404 25.9786 46.756 25.9226 48.124C25.8666 49.484 25.7706 50.832 25.6346 52.168ZM18.8786 47.116C19.4946 47.02 20.1026 46.928 20.7026 46.84C20.6786 46.6 20.6546 46.36 20.6306 46.12C20.6146 45.88 20.5986 45.64 20.5826 45.4C20.3346 45.408 20.0666 45.416 19.7786 45.424C19.4906 45.424 19.2026 45.424 18.9146 45.424C18.6266 45.424 18.3426 45.424 18.0626 45.424C17.7906 45.424 17.5426 45.42 17.3186 45.412C17.2066 45.412 17.1106 45.4 17.0306 45.376C16.9506 45.352 16.8826 45.312 16.8266 45.256C16.7786 45.192 16.7426 45.108 16.7186 45.004C16.6946 44.9 16.6826 44.76 16.6826 44.584C16.6906 44.216 16.7346 43.976 16.8146 43.864C16.9026 43.752 17.0466 43.696 17.2466 43.696C18.0706 43.68 18.9306 43.66 19.8266 43.636C20.7306 43.612 21.5946 43.6 22.4186 43.6C22.6026 43.6 22.6946 43.7 22.6946 43.9C22.7106 44.524 22.7226 45.148 22.7306 45.772C22.7386 46.396 22.7386 47.02 22.7306 47.644C22.7306 47.844 22.6866 47.996 22.5986 48.1C22.5186 48.204 22.3786 48.268 22.1786 48.292C21.6186 48.372 21.0586 48.448 20.4986 48.52C19.9466 48.584 19.3706 48.648 18.7706 48.712C18.7706 48.864 18.7666 49.04 18.7586 49.24C18.7586 49.432 18.7586 49.608 18.7586 49.768C18.7586 49.872 18.7786 49.944 18.8186 49.984C18.8666 50.016 18.9466 50.032 19.0586 50.032C19.2906 50.032 19.5426 50.028 19.8146 50.02C20.0946 50.004 20.3786 49.992 20.6666 49.984C20.9546 49.968 21.2426 49.956 21.5306 49.948C21.8186 49.932 22.0906 49.916 22.3466 49.9C22.5306 49.892 22.6626 49.928 22.7426 50.008C22.8306 50.088 22.8826 50.244 22.8986 50.476C22.9146 50.764 22.8786 50.956 22.7906 51.052C22.7026 51.14 22.5906 51.196 22.4546 51.22C22.1346 51.268 21.7746 51.316 21.3746 51.364C20.9826 51.412 20.5826 51.456 20.1746 51.496C19.7746 51.536 19.3786 51.572 18.9866 51.604C18.6026 51.628 18.2586 51.64 17.9546 51.64C17.4346 51.64 17.1226 51.452 17.0186 51.076C16.9786 50.932 16.9386 50.74 16.8986 50.5C16.8666 50.252 16.8346 49.98 16.8026 49.684C16.7706 49.388 16.7426 49.08 16.7186 48.76C16.7026 48.44 16.6906 48.132 16.6826 47.836C16.6826 47.724 16.7106 47.628 16.7666 47.548C16.8306 47.46 16.9266 47.408 17.0546 47.392C17.6546 47.304 18.2626 47.212 18.8786 47.116ZM32.9412 44.848C32.9412 45.992 32.9212 47.064 32.8812 48.064C32.8492 49.064 32.7892 50 32.7012 50.872C32.6772 51.152 32.6012 51.364 32.4732 51.508C32.3452 51.644 32.1012 51.712 31.7412 51.712C31.4052 51.712 31.1772 51.644 31.0572 51.508C30.9452 51.372 30.8852 51.16 30.8772 50.872C30.8692 50.384 30.8612 49.924 30.8532 49.492C30.8452 49.052 30.8412 48.62 30.8412 48.196C30.8412 47.772 30.8412 47.344 30.8412 46.912C30.8492 46.48 30.8572 46.024 30.8652 45.544C30.2892 45.544 29.7172 45.544 29.1492 45.544C28.5812 45.536 28.0132 45.524 27.4452 45.508C27.3092 45.5 27.1772 45.432 27.0492 45.304C26.9212 45.168 26.8612 44.94 26.8692 44.62C26.8772 44.356 26.9252 44.16 27.0132 44.032C27.1012 43.896 27.2612 43.82 27.4932 43.804C28.2932 43.764 29.0452 43.736 29.7492 43.72C30.4532 43.696 31.1812 43.684 31.9332 43.684C32.1092 43.684 32.2612 43.688 32.3892 43.696C32.5172 43.696 32.6212 43.716 32.7012 43.756C32.7812 43.788 32.8412 43.84 32.8812 43.912C32.9212 43.984 32.9412 44.088 32.9412 44.224V44.848ZM35.8332 52.168C35.8172 52.344 35.7532 52.484 35.6412 52.588C35.5372 52.7 35.4172 52.78 35.2812 52.828C35.1932 52.86 35.0692 52.872 34.9092 52.864C34.7492 52.856 34.6132 52.832 34.5012 52.792C34.3972 52.752 34.3052 52.684 34.2252 52.588C34.1532 52.5 34.1172 52.376 34.1172 52.216C34.1092 51.52 34.1052 50.84 34.1052 50.176C34.1052 49.512 34.1052 48.852 34.1052 48.196C34.1132 47.532 34.1212 46.864 34.1292 46.192C34.1452 45.512 34.1612 44.808 34.1772 44.08C34.1852 43.76 34.3092 43.548 34.5492 43.444C34.7412 43.356 34.9612 43.316 35.2092 43.324C35.4572 43.324 35.6732 43.368 35.8572 43.456C35.9852 43.52 36.0692 43.6 36.1092 43.696C36.1572 43.784 36.1812 43.908 36.1812 44.068C36.1972 45.404 36.1772 46.756 36.1212 48.124C36.0652 49.484 35.9692 50.832 35.8332 52.168Z" fill="#19505A"/>
<g filter="url(#filter0_d_1121_6171)">
<rect x="10.5" y="14.9375" width="22.9999" height="2.87502" rx="1.43751" fill="#19505A"/>
<path d="M26.625 14.9374C28.8341 14.9374 30.625 16.7283 30.625 18.9374V32.4999C30.625 34.709 28.8341 36.4998 26.625 36.4999H17.375C15.1659 36.4999 13.375 34.709 13.375 32.4999V18.9374C13.375 16.7282 15.1659 14.9374 17.375 14.9374H26.625ZM18.4062 19.2499C18.0093 19.2499 17.6876 19.5717 17.6875 19.9686V31.4686C17.6875 31.8656 18.0093 32.1874 18.4062 32.1874C18.8032 32.1874 19.125 31.8656 19.125 31.4686V19.9686C19.1249 19.5717 18.8032 19.2499 18.4062 19.2499ZM22 19.2499C21.6031 19.2499 21.2813 19.5717 21.2812 19.9686V31.4686C21.2812 31.8656 21.603 32.1874 22 32.1874C22.3969 32.1873 22.7188 31.8656 22.7188 31.4686V19.9686C22.7187 19.5718 22.3969 19.2499 22 19.2499ZM25.5938 19.2499C25.1968 19.2499 24.8751 19.5717 24.875 19.9686V31.4686C24.875 31.8656 25.1968 32.1874 25.5938 32.1874C25.9907 32.1873 26.3125 31.8656 26.3125 31.4686V19.9686C26.3124 19.5718 25.9906 19.2499 25.5938 19.2499Z" fill="#19505A"/>
<rect x="17.6875" y="12.0625" width="8.62497" height="5.75004" rx="2.87502" stroke="#19505A" stroke-width="4" stroke-linejoin="round"/>
</g>
<defs>
<filter id="filter0_d_1121_6171" x="0.5" y="0.0625" width="43" height="46.4374" filterUnits="userSpaceOnUse" color-interpolation-filters="sRGB">
<feFlood flood-opacity="0" result="BackgroundImageFix"/>
<feColorMatrix in="SourceAlpha" type="matrix" values="0 0 0 0 0 0 0 0 0 0 0 0 0 0 0 0 0 0 127 0" result="hardAlpha"/>
<feOffset/>
<feGaussianBlur stdDeviation="5"/>
<feComposite in2="hardAlpha" operator="out"/>
<feColorMatrix type="matrix" values="0 0 0 0 0 0 0 0 0 0 0 0 0 0 0 0 0 0 0.05 0"/>
<feBlend mode="normal" in2="BackgroundImageFix" result="effect1_dropShadow_1121_6171"/>
<feBlend mode="normal" in="SourceGraphic" in2="effect1_dropShadow_1121_6171" result="shape"/>
</filter>
</defs>
</svg>
