<svg width="74" height="102" viewBox="0 0 74 102" fill="none" xmlns="http://www.w3.org/2000/svg">
<ellipse cx="21.0119" cy="15.9182" rx="13.4289" ry="12.7793" fill="#58A3AA"/>
<path d="M0.651367 51.4917C0.651367 40.2473 9.7668 31.1318 21.0112 31.1318V31.1318C32.2557 31.1318 41.3711 40.2473 41.3711 51.4917V61.3154C41.3711 65.4829 37.9927 68.8613 33.8252 68.8613H8.19726C4.02978 68.8613 0.651367 65.4829 0.651367 61.3154V51.4917Z" fill="#58A3AA"/>
<path d="M32.6279 51.4917C32.6279 40.2473 41.7434 31.1318 52.9878 31.1318V31.1318C64.2323 31.1318 73.3477 40.2473 73.3477 51.4917V61.3154C73.3477 65.4829 69.9693 68.8613 65.8018 68.8613H40.1738C36.0063 68.8613 32.6279 65.4829 32.6279 61.3154V51.4917Z" fill="#58A3AA"/>
<ellipse cx="52.9874" cy="15.9182" rx="13.4289" ry="12.7793" fill="#58A3AA"/>
<path d="M33.507 94.7611C33.307 94.9878 33.0536 95.1278 32.747 95.1811C31.4936 95.3678 30.1603 95.5078 28.747 95.6011C27.3336 95.7078 25.907 95.7744 24.467 95.8011C24.2536 95.8011 24.0736 95.7678 23.927 95.7011C23.7803 95.6344 23.6603 95.5411 23.567 95.4211C23.4736 95.3144 23.4003 95.1811 23.347 95.0211C23.2936 94.8744 23.2603 94.7211 23.247 94.5611C23.207 94.2544 23.2536 93.9811 23.387 93.7411C23.5203 93.5011 23.6803 93.2811 23.867 93.0811C23.907 93.0278 24.0336 92.9078 24.247 92.7211C24.4603 92.5211 24.707 92.2878 24.987 92.0211C25.2803 91.7411 25.5936 91.4478 25.927 91.1411C26.2736 90.8211 26.6003 90.5211 26.907 90.2411C27.2136 89.9478 27.4803 89.6944 27.707 89.4811C27.947 89.2544 28.1136 89.1011 28.207 89.0211C28.8603 88.3944 29.3936 87.8278 29.807 87.3211C30.2203 86.8144 30.447 86.3344 30.487 85.8811C30.5536 85.2544 30.3936 84.7544 30.007 84.3811C29.6203 83.9944 29.0003 83.8211 28.147 83.8611C27.8936 83.8744 27.6403 83.9277 27.387 84.0211C27.147 84.1144 26.9203 84.2478 26.707 84.4211C26.4936 84.5811 26.3003 84.7744 26.127 85.0011C25.967 85.2144 25.847 85.4478 25.767 85.7011C25.7003 85.9278 25.587 86.1144 25.427 86.2611C25.267 86.3944 25.087 86.5011 24.887 86.5811C24.687 86.6478 24.4736 86.6878 24.247 86.7011C24.0203 86.7011 23.8003 86.6744 23.587 86.6211C23.2403 86.5144 22.9603 86.3411 22.747 86.1011C22.5336 85.8611 22.4336 85.5811 22.447 85.2611C22.4736 84.7411 22.6403 84.2344 22.947 83.7411C23.2536 83.2477 23.6603 82.8077 24.167 82.4211C24.687 82.0211 25.287 81.6944 25.967 81.4411C26.6603 81.1744 27.4003 81.0077 28.187 80.9411C28.947 80.8744 29.6736 80.9344 30.367 81.1211C31.0736 81.2944 31.6936 81.5744 32.227 81.9611C32.7603 82.3344 33.1803 82.7944 33.487 83.3411C33.807 83.8878 33.967 84.4878 33.967 85.1411C33.967 85.9411 33.8003 86.6878 33.467 87.3811C33.1336 88.0744 32.587 88.7878 31.827 89.5211C31.507 89.8278 31.1736 90.1411 30.827 90.4611C30.4803 90.7811 30.127 91.0944 29.767 91.4011C29.4203 91.7078 29.0803 92.0011 28.747 92.2811C28.427 92.5478 28.1336 92.7811 27.867 92.9811C28.7736 92.9011 29.6403 92.8344 30.467 92.7811C31.2936 92.7278 32.067 92.6878 32.787 92.6611C33.0803 92.6478 33.3136 92.7344 33.487 92.9211C33.6736 93.1078 33.7736 93.3811 33.787 93.7411C33.8003 94.1944 33.707 94.5344 33.507 94.7611ZM45.5954 87.7411C45.3421 88.3544 44.9754 88.8944 44.4954 89.3611C44.0154 89.8144 43.4354 90.1744 42.7554 90.4411C42.0887 90.6944 41.3421 90.8211 40.5154 90.8211C39.5954 90.8211 38.7954 90.7011 38.1154 90.4611C37.4354 90.2078 36.8687 89.8611 36.4154 89.4211C35.9621 88.9678 35.6221 88.4278 35.3954 87.8011C35.1821 87.1744 35.0754 86.4878 35.0754 85.7411C35.0754 85.0211 35.2021 84.3411 35.4554 83.7011C35.7221 83.0611 36.1021 82.5011 36.5954 82.0211C37.0887 81.5411 37.6954 81.1611 38.4154 80.8811C39.1487 80.6011 39.9754 80.4611 40.8954 80.4611C41.7487 80.4611 42.4954 80.6078 43.1354 80.9011C43.7754 81.1811 44.3087 81.5611 44.7354 82.0411C45.1621 82.5211 45.4754 83.0811 45.6754 83.7211C45.8887 84.3611 45.9954 85.0278 45.9954 85.7211C45.9954 86.4411 45.8621 87.1144 45.5954 87.7411ZM40.4554 88.1011C41.1754 88.1011 41.7487 87.8811 42.1754 87.4411C42.6021 87.0011 42.8154 86.4011 42.8154 85.6411C42.8154 84.8811 42.6154 84.2811 42.2154 83.8411C41.8154 83.4011 41.2954 83.1811 40.6554 83.1811C39.8954 83.1811 39.3021 83.4144 38.8754 83.8811C38.4621 84.3478 38.2554 84.9611 38.2554 85.7211C38.2554 86.4678 38.4621 87.0544 38.8754 87.4811C39.2887 87.8944 39.8154 88.1011 40.4554 88.1011ZM50.3154 91.5411C50.1954 91.7011 50.0021 91.8344 49.7354 91.9411C49.6554 91.9678 49.5421 91.9944 49.3954 92.0211C49.2487 92.0344 49.0887 92.0478 48.9154 92.0611C48.7421 92.0611 48.5754 92.0544 48.4154 92.0411C48.2554 92.0144 48.1287 91.9811 48.0354 91.9411C47.8621 91.8611 47.7087 91.7411 47.5754 91.5811C47.4554 91.4078 47.3954 91.1878 47.3954 90.9211C47.3821 90.3611 47.3687 89.6811 47.3554 88.8811C47.3554 88.0811 47.3487 87.2544 47.3354 86.4011C47.3221 85.5344 47.3154 84.6811 47.3154 83.8411C47.3154 82.9878 47.3221 82.2278 47.3354 81.5611C47.3354 81.0544 47.5421 80.7211 47.9554 80.5611C48.2754 80.4411 48.6421 80.3877 49.0554 80.4011C49.4687 80.4011 49.8287 80.4611 50.1354 80.5811C50.3487 80.6611 50.4887 80.7744 50.5554 80.9211C50.6354 81.0677 50.6754 81.2744 50.6754 81.5411C50.6887 82.1678 50.6954 82.9078 50.6954 83.7611C50.6954 84.6011 50.6887 85.4611 50.6754 86.3411C50.6754 87.2078 50.6621 88.0411 50.6354 88.8411C50.6221 89.6411 50.5954 90.3078 50.5554 90.8411C50.5287 91.1344 50.4487 91.3678 50.3154 91.5411ZM50.5354 97.3211C50.4021 97.5344 50.2287 97.6544 50.0154 97.6811C49.5354 97.7344 48.9087 97.7811 48.1354 97.8211C47.3754 97.8611 46.5554 97.8944 45.6754 97.9211C44.8087 97.9611 43.9287 97.9944 43.0354 98.0211C42.1554 98.0478 41.3687 98.0678 40.6754 98.0811C39.7421 98.1078 39.2221 97.6544 39.1154 96.7211C39.0621 96.2544 39.0087 95.7078 38.9554 95.0811C38.9154 94.4678 38.8954 93.8211 38.8954 93.1411C38.8954 92.5011 39.1154 92.1211 39.5554 92.0011C39.8487 91.9211 40.1954 91.8744 40.5954 91.8611C40.9954 91.8344 41.3154 91.8344 41.5554 91.8611C41.9021 91.8878 42.1287 91.9811 42.2354 92.1411C42.3554 92.2878 42.4221 92.5344 42.4354 92.8811C42.4354 93.0944 42.4354 93.2878 42.4354 93.4611C42.4487 93.6211 42.4554 93.7811 42.4554 93.9411C42.4687 94.1011 42.4754 94.2678 42.4754 94.4411C42.4887 94.6144 42.4954 94.8144 42.4954 95.0411C42.4954 95.2811 42.5954 95.4011 42.7954 95.4011C43.2087 95.4011 43.7287 95.3944 44.3554 95.3811C44.9954 95.3811 45.6554 95.3744 46.3354 95.3611C47.0287 95.3478 47.6887 95.3344 48.3154 95.3211C48.9554 95.3078 49.4821 95.3011 49.8954 95.3011C50.3887 95.3011 50.6554 95.6478 50.6954 96.3411C50.7221 96.7944 50.6687 97.1211 50.5354 97.3211Z" fill="#3D8691"/>
</svg>
